<svg id="Capa_1" enable-background="new 0 0 511.995 511.995" height="512" viewBox="0 0 511.995 511.995" width="512" xmlns="http://www.w3.org/2000/svg"><g><g><path d="m400.358 200.199v-113.242c0-6.806.826-13.586 2.46-20.193l12.981-52.489c1.182-4.778-4.071-8.553-8.223-5.909l-19.891 12.668c-15.818 10.074-26.867 26.14-30.612 44.516l-27.447 134.649z" fill="#91deb6"/><path d="m407.576 8.367-19.891 12.668c-.806.513-1.591 1.052-2.371 1.596 1.254 1.253 1.928 3.104 1.423 5.143l-8.886 38.991c-1.634 6.607-2.46 13.388-2.46 20.193v113.242h24.967v-113.243c0-6.806.826-13.586 2.46-20.193l12.981-52.489c1.181-4.778-4.072-8.552-8.223-5.908z" fill="#6ed5a1"/><path d="m223.44 56.858 34.933 37.507c7.511 8.064 12.986 17.807 15.968 28.417l21.763 77.417h77.171l-29.038-92.594c-7.555-24.089-27.636-42.147-52.389-47.11l-63.344-12.7c-5.195-1.041-8.674 5.187-5.064 9.063z" fill="#b0e7c9"/><path d="m344.236 107.605c-7.554-24.089-27.636-42.147-52.389-47.11l-63.344-12.7c-3.91-.784-6.844 2.551-6.519 5.902 1.185-1.271 2.963-2.008 5.021-1.596l39.875 8.394c24.753 4.963 44.835 23.021 52.389 47.11l29.038 92.594h24.967z" fill="#91deb6"/><path d="m435.11 200.199 18.248-78.666c1.197-5.16 2.983-10.165 5.322-14.918l16.115-32.734c2.423-4.921-3.118-9.937-7.774-7.038l-25.485 15.866c-11.18 6.96-20.139 16.968-25.826 28.846l-42.435 88.644z" fill="#b0e7c9"/><path d="m467.02 66.844-24.079 14.991c.653 1.373.754 3.034-.062 4.692l-9.167 20.089c-2.34 4.752-4.125 9.758-5.322 14.918l-18.248 78.666h24.967l18.248-78.666c1.197-5.16 2.983-10.165 5.322-14.918l16.115-32.734c2.423-4.921-3.117-9.937-7.774-7.038z" fill="#91deb6"/><path d="m451.107 445.659h-175.094l-27.188-228.079c-1.176-9.221 6.009-17.381 15.305-17.381h198.859c9.296 0 16.481 8.16 15.305 17.381z" fill="#d8ecfe"/><path d="m462.989 200.199h-24.967c9.296 0 16.481 8.16 15.305 17.381l-27.187 228.079h24.967l27.188-228.079c1.175-9.221-6.01-17.381-15.306-17.381z" fill="#b3dafe"/><path d="m490.355 504.495h-468.716c-7.664 0-13.876-6.213-13.876-13.876v-14.79c0-16.663 13.508-30.17 30.17-30.17h436.128c16.662 0 30.17 13.508 30.17 30.17v14.79c0 7.663-6.212 13.876-13.876 13.876z" fill="#72848e"/><path d="m474.061 445.659h-24.967c16.662 0 30.17 13.508 30.17 30.17v14.79c0 7.664-6.213 13.876-13.876 13.876h24.967c7.664 0 13.876-6.213 13.876-13.876v-14.79c0-16.663-13.507-30.17-30.17-30.17z" fill="#596c76"/><path d="m336.989 243.273h-264.185c-16.205 0-29.342 13.137-29.342 29.342v173.044h322.868v-173.044c0-16.205-13.136-29.342-29.341-29.342z" fill="#978ecb"/><path d="m336.989 243.273h-24.967c16.205 0 29.342 13.137 29.342 29.342v173.044h24.967v-173.044c0-16.205-13.137-29.342-29.342-29.342z" fill="#8379c1"/><path d="m190.111 243.273h-100.491v-17.27c0-6.41 5.196-11.607 11.607-11.607h77.277c6.41 0 11.607 5.196 11.607 11.607z" fill="#b3dafe"/><path d="m178.504 214.396h-24.967c6.41 0 11.607 5.197 11.607 11.607v17.27h24.967v-17.27c0-6.41-5.197-11.607-11.607-11.607z" fill="#8ac9fe"/><path d="m75.428 378.623v-91.289c0-6.68 5.415-12.095 12.095-12.095h234.747c6.68 0 12.095 5.415 12.095 12.095v91.289c0 6.68-5.415 12.095-12.095 12.095h-234.747c-6.68 0-12.095-5.415-12.095-12.095z" fill="#b3dafe"/><path d="m322.27 275.239h-24.967c6.68 0 12.095 5.415 12.095 12.095v91.289c0 6.68-5.415 12.095-12.095 12.095h24.967c6.68 0 12.095-5.415 12.095-12.095v-91.289c0-6.68-5.415-12.095-12.095-12.095z" fill="#8ac9fe"/></g><g><path d="m474.061 438.158h-100.231v-165.543c0-20.314-16.527-36.842-36.842-36.842h-78.436l-2.284-19.139c-.372-3.506 1.921-8.534 7.864-8.931h198.857c3.557.091 8.229 2.974 7.855 8.994l-23.031 193.193c-.49 4.113 2.446 7.845 6.56 8.335 3.168.385 7.27-1.774 8.335-6.56l23.024-193.13c1.855-12.083-8.66-26.149-22.742-25.832h-18.442l16.117-69.477c1.064-4.592 2.66-9.067 4.744-13.299l16.115-32.733c5.537-10.4-7.04-23.637-18.467-16.718l-25.485 15.866c-12.483 7.609-23.57 20.38-29.713 34.245v-23.63c-.9-12.691 12.597-58.032 15.221-70.881 1.279-5.171-.689-10.521-5.016-13.629-4.325-3.108-10.023-3.268-14.516-.407-28.78 16.357-48.32 33.553-53.824 62.012l-5.235 25.681c-22.735-41.907-76.925-39.472-114.512-49.292-5.536-1.111-11.103 1.456-13.855 6.383-2.752 4.928-2.017 11.015 1.83 15.145 12.821 15.323 44.921 42.36 49.169 62.841l12.023 42.771c1.121 3.988 5.267 6.31 9.249 5.19 3.988-1.121 6.312-5.262 5.19-9.25l-12.023-42.771c-4.903-23.274-33.786-47.656-48.299-64.353 54.171 11.431 93.623 9.891 106.392 61.656l23.41 74.649h-25.053l-15.27-52.886c-1.746-7.35-9.131-21.416-12.745-28.546-1.861-3.701-6.371-5.193-10.07-3.331-3.7 1.861-5.191 6.37-3.33 10.07 3.843 7.929 8.991 16.606 11.734 25.968l14.067 48.725h-58.266c-12.735-.301-24.457 11.915-22.751 25.77l2.065 17.3h-45.835v-9.771c0-10.535-8.571-19.106-19.107-19.106h-77.277c-10.535 0-19.106 8.571-19.106 19.106v9.771h-9.316c-20.314 0-36.842 16.527-36.842 36.842v165.596c-19.859 1.029-35.699 17.508-35.699 37.619v14.79c0 11.787 9.589 21.376 21.376 21.376h67.368c4.142 0 7.5-3.358 7.5-7.5s-3.358-7.5-7.5-7.5h-67.367c-3.516 0-6.376-2.86-6.376-6.376v-14.79c-.21-14.553 13.908-24.566 28.199-22.67h430.598c12.501 0 22.671 10.17 22.671 22.67v14.79c0 3.516-2.86 6.376-6.377 6.376h-365.473c-4.142 0-7.5 3.358-7.5 7.5s3.358 7.5 7.5 7.5h365.473c11.787 0 21.377-9.589 21.377-21.376v-14.79c.001-20.772-16.899-37.671-37.67-37.671zm-51.586-323.365c5.078-10.608 13.04-19.501 23.024-25.717l19.402-12.079-12.95 26.304c-2.591 5.263-4.576 10.826-5.899 16.536l-16.901 72.86h-43.971zm-30.762-87.433 15.577-9.92c-3.406 15.95-15.054 53.449-14.432 69.517v54.963l-18.126 37.863-20.177-64.338 9.865-48.398c3.322-16.29 13.271-30.756 27.293-39.687zm-294.593 198.643c0-2.264 1.842-4.106 4.106-4.106h77.277c2.265 0 4.107 1.842 4.107 4.106v9.771h-85.49zm-46.157 46.612c0-12.043 9.798-21.842 21.842-21.842h264.184c12.044 0 21.842 9.798 21.842 21.842v165.543h-307.868z"/><path d="m322.27 267.739h-234.747c-10.805 0-19.595 8.79-19.595 19.594v91.29c0 10.805 8.79 19.595 19.595 19.595h234.747c10.805 0 19.595-8.79 19.595-19.595v-91.29c-.001-10.804-8.791-19.594-19.595-19.594zm4.594 110.884c0 2.534-2.062 4.595-4.595 4.595h-116.862v-13.051c0-4.142-3.358-7.5-7.5-7.5s-7.5 3.358-7.5 7.5v13.051h-102.884c-2.534 0-4.595-2.061-4.595-4.595v-91.29c0-2.533 2.061-4.594 4.595-4.594h234.747c2.533 0 4.595 2.061 4.595 4.594v91.29z"/><path d="m293.823 410.94h-24.066c-4.143 0-7.5 3.358-7.5 7.5s3.357 7.5 7.5 7.5h24.066c4.143 0 7.5-3.358 7.5-7.5s-3.357-7.5-7.5-7.5z"/><path d="m333.952 410.779c-4.231 0-7.661 3.43-7.661 7.661s3.43 7.661 7.661 7.661 7.661-3.43 7.661-7.661-3.43-7.661-7.661-7.661z"/><path d="m116.929 302.034h-10.4c-4.142 0-7.5 3.358-7.5 7.5s3.358 7.5 7.5 7.5h2.9v41.158c0 4.142 3.358 7.5 7.5 7.5s7.5-3.358 7.5-7.5v-48.658c0-4.142-3.358-7.5-7.5-7.5z"/><path d="m159.131 301.042c-11.894 0-21.571 9.677-21.571 21.571v22.502c0 11.894 9.677 21.571 21.571 21.571s21.571-9.677 21.571-21.571v-22.502c0-11.894-9.676-21.571-21.571-21.571zm6.571 44.073c0 3.623-2.948 6.571-6.571 6.571s-6.571-2.948-6.571-6.571v-22.502c0-3.623 2.948-6.571 6.571-6.571s6.571 2.948 6.571 6.571z"/><path d="m289.012 300.156c-11.895 0-21.571 9.677-21.571 21.571v22.502c0 11.894 9.677 21.571 21.571 21.571s21.57-9.677 21.57-21.571v-22.502c0-11.894-9.677-21.571-21.57-21.571zm6.57 44.073c0 3.623-2.947 6.571-6.57 6.571s-6.571-2.948-6.571-6.571v-22.502c0-3.623 2.948-6.571 6.571-6.571s6.57 2.948 6.57 6.571z"/><path d="m234.027 300.156c-11.894 0-21.571 9.677-21.571 21.571v22.502c0 11.894 9.677 21.571 21.571 21.571s21.571-9.677 21.571-21.571v-22.502c0-11.894-9.677-21.571-21.571-21.571zm6.571 44.073c0 3.623-2.948 6.571-6.571 6.571s-6.571-2.948-6.571-6.571v-22.502c0-3.623 2.948-6.571 6.571-6.571s6.571 2.948 6.571 6.571z"/></g></g></svg>