<?xml version="1.0" encoding="utf-8"?>
<!-- Generator: Adobe Illustrator 22.1.0, SVG Export Plug-In . SVG Version: 6.00 Build 0)  -->
<svg xmlns="http://www.w3.org/2000/svg" xmlns:xlink="http://www.w3.org/1999/xlink" version="1.1" id="Layer_1" x="0px" y="0px" viewBox="0 0 512 512" style="enable-background:new 0 0 512 512;" xml:space="preserve" width="512" height="512">
<style type="text/css">
	.st0{fill:#DB9C2E;}
	.st1{fill:#BF6C0D;}
	.st2{fill:#F9BB32;}
	.st3{fill:#FCE575;}
	.st4{fill:#FFD551;}
	.st5{fill:#FFC34C;}
	.st6{fill:#FFDF74;}
	.st7{fill:#FFA730;}
	.st8{fill:#FFF4C1;}
	.st9{fill:#FFEACF;}
	.st10{fill:#FF624B;}
	.st11{fill:#CCC033;}
	.st12{fill:#8C4C17;}
	.st13{fill:#FFD59A;}
	.st14{fill:#99AF17;}
	.st15{fill:#FCF9DE;}
	.st16{fill:#E58D23;}
	.st17{fill:#A56021;}
	.st18{fill:#FF4B34;}
	.st19{fill:#FF9079;}
	.st20{fill:#EACF32;}
	.st21{fill:#FFB74B;}
	.st22{fill:#FCDA4F;}
	.st23{fill:#FFEA63;}
</style>
<g>
	<g>
		<g>
			<path class="st19" d="M449.395,46.495H165.409c-23.975,0-43.411,19.436-43.411,43.411v60.395     c0,23.975,19.436,43.411,43.411,43.411h189.608l34.968,40.677c3.34,3.886,9.347,3.916,12.726,0.064l35.738-40.741h10.946     c23.975,0,43.411-19.436,43.411-43.411V89.906C492.806,65.931,473.37,46.495,449.395,46.495z"/>
		</g>
	</g>
	<g>
		<g>
			<g>
				<path class="st10" d="M161.999,150.301V89.906c0-23.975,19.436-43.411,43.411-43.411h-40c-23.975,0-43.411,19.436-43.411,43.411      v60.395c0,23.975,19.436,43.411,43.411,43.411h40C181.434,193.712,161.999,174.276,161.999,150.301z"/>
			</g>
		</g>
	</g>
	<g>
		<g>
			<path class="st2" d="M346.591,274.678H62.605c-23.975,0-43.411,19.436-43.411,43.411v60.395     c0,23.975,19.436,43.411,43.411,43.411h10.946l35.738,40.741c3.379,3.852,9.386,3.822,12.726-0.064l34.968-40.677h189.608     c23.975,0,43.411-19.436,43.411-43.411v-60.395C390.001,294.113,370.566,274.678,346.591,274.678z"/>
		</g>
	</g>
	<g>
		<g>
			<g>
				<path class="st17" d="M239.227,384.429H74.763c-5.377,0-9.735-4.373-9.735-9.767s4.359-9.767,9.735-9.767h164.464      c5.377,0,9.735,4.373,9.735,9.767S244.603,384.429,239.227,384.429z"/>
			</g>
		</g>
	</g>
	<g>
		<g>
			<g>
				<path class="st17" d="M284.373,151.676h154.482c5.051,0,9.145-4.373,9.145-9.767s-4.094-9.767-9.145-9.767H284.373      c-5.051,0-9.145,4.373-9.145,9.767S279.323,151.676,284.373,151.676z"/>
			</g>
		</g>
	</g>
	<g>
		<g>
			<path class="st9" d="M416.448,403.218c1.284-1.024,2.114-2.649,2.114-4.481v-2.244c0-4.807-3.687-8.704-8.234-8.704h-4.917     h-35.067c-2.932,0-5.309-2.512-5.309-5.611v-17.457c0-7.458-5.719-13.504-12.775-13.504c-3.179,0-5.757,2.724-5.757,6.085v21.056     c0,5.712-2.246,11.167-6.201,15.059l-7.609,7.488h-45.889v45.078h45.889l7.855,6.462l0.001-0.011     c1.256,0.995,2.811,1.591,4.502,1.591h10.794h49.564h0.416c4.548,0,8.234-3.897,8.234-8.704v-4.905     c0-0.769-0.147-1.502-0.412-2.169c-0.21-0.528-0.016-1.15,0.465-1.413c1.704-0.933,2.87-2.811,2.87-4.98v-7.195     c0-1.428-0.507-2.728-1.338-3.717c-0.378-0.449-0.34-1.138,0.076-1.547c1.04-1.023,1.691-2.48,1.691-4.1v-6.971     c0-1.321-0.433-2.533-1.157-3.49C415.874,404.331,415.96,403.607,416.448,403.218z"/>
		</g>
	</g>
	<g>
		<g>
			<g>
				<path class="st13" d="M352.262,351.217c-3.179,0-5.757,2.724-5.757,6.085v21.056c0,5.712-2.246,11.167-6.201,15.059      l-7.609,7.488h-6.983h-38.906h-2.245v45.078h2.245h7.482h31.424V409.51c0-1.653,1.34-2.993,2.993-2.993h8.408      c1.964,0,3.848-0.772,5.248-2.149l5.425-5.339c3.955-3.892,6.201-9.347,6.201-15.059v-21.056c0-3.361,2.577-6.085,5.757-6.085      c1.089,0,2.146,0.145,3.156,0.416C360.61,353.612,356.701,351.217,352.262,351.217z"/>
			</g>
		</g>
	</g>
	<g>
		<g>
			<path class="st10" d="M313.302,457.783h-59.542c-2.761,0-5-2.239-5-5v-58.676c0-2.761,2.239-5,5-5h59.542c2.761,0,5,2.239,5,5     v58.676C318.302,455.545,316.064,457.783,313.302,457.783z"/>
		</g>
	</g>
	<g>
		<g>
			<path class="st18" d="M273.077,446.56c-3.099,0-5.611-2.512-5.611-5.611v-51.842h-13.609c-2.814,0-5.096,2.281-5.096,5.096     v57.966c0,3.101,2.514,5.614,5.614,5.614h58.316c3.099,0,5.611-2.512,5.611-5.611v-5.611H273.077z"/>
		</g>
	</g>
	<g>
		<g>
			<path class="st15" d="M398.812,448.967h-36.163c-3.313,0-6-2.687-6-6s2.687-6,6-6h36.163c3.313,0,6,2.687,6,6     S402.125,448.967,398.812,448.967z"/>
		</g>
	</g>
	<g>
		<g>
			<path class="st5" d="M126.438,144.906l-9.988,20.238c-1.032,2.09-3.026,3.539-5.332,3.874l-22.334,3.245     c-4.647,0.675-6.502,6.386-3.14,9.663l16.161,15.753c1.669,1.627,2.431,3.971,2.037,6.268l-3.815,22.244     c-0.794,4.628,4.064,8.157,8.22,5.972l19.976-10.502c2.063-1.085,4.528-1.085,6.591,0l19.976,10.502     c4.156,2.185,9.014-1.344,8.22-5.972l-3.815-22.244c-0.394-2.297,0.368-4.641,2.037-6.268l16.161-15.753     c3.363-3.278,1.507-8.988-3.14-9.663l-22.334-3.245c-2.307-0.335-4.301-1.784-5.332-3.874l-9.988-20.238     C134.521,140.695,128.516,140.695,126.438,144.906z"/>
		</g>
	</g>
	<g>
		<g>
			<path class="st7" d="M111.551,421.894h-10.946c-23.975,0-43.411-19.436-43.411-43.411v-60.395     c0-23.975,19.436-43.411,43.411-43.411h-38c-23.975,0-43.411,19.436-43.411,43.411v60.395c0,23.975,19.436,43.411,43.411,43.411     h10.946l35.738,40.741c3.379,3.853,9.385,3.822,12.726-0.063l12.482-14.52L111.551,421.894z"/>
		</g>
	</g>
	<g>
		<g>
			<path class="st17" d="M334.733,341.018H74.255c-5.394,0-9.767-4.373-9.767-9.767l0,0c0-5.394,4.373-9.767,9.767-9.767h260.477     c5.394,0,9.767,4.373,9.767,9.767l0,0C344.5,336.645,340.127,341.018,334.733,341.018z"/>
		</g>
	</g>
	<g>
		<g>
			<path class="st17" d="M438.233,105.804H178.471c-5.394,0-9.767-4.373-9.767-9.767v0c0-5.394,4.373-9.767,9.767-9.767h259.761     c5.394,0,9.767,4.373,9.767,9.767v0C448,101.431,443.627,105.804,438.233,105.804z"/>
		</g>
	</g>
	<g>
		<g>
			<g>
				<path class="st7" d="M120.749,207.85c0.394-2.297-0.368-4.641-2.037-6.268l-16.161-15.753c-3.363-3.277-1.507-8.988,3.14-9.663      l22.334-3.245c2.307-0.335,4.301-1.784,5.332-3.874l7.578-15.354l-4.336-8.786c-2.078-4.211-8.082-4.211-10.161,0l-9.988,20.238      c-1.032,2.09-3.025,3.539-5.332,3.874l-22.334,3.245c-4.647,0.675-6.502,6.386-3.14,9.663l16.161,15.753      c1.669,1.627,2.431,3.971,2.037,6.268l-3.815,22.244c-0.794,4.628,4.064,8.158,8.22,5.973l9.158-4.814L120.749,207.85z"/>
			</g>
		</g>
	</g>
	<g>
		<g>
			<path class="st5" d="M235.686,144.906l-9.988,20.238c-1.032,2.09-3.026,3.539-5.332,3.874l-22.334,3.245     c-4.647,0.675-6.502,6.386-3.14,9.663l16.161,15.753c1.669,1.627,2.431,3.971,2.037,6.268l-3.815,22.244     c-0.794,4.628,4.064,8.157,8.22,5.972l19.976-10.502c2.063-1.085,4.528-1.085,6.591,0l19.976,10.502     c4.156,2.185,9.014-1.344,8.22-5.972l-3.815-22.244c-0.394-2.297,0.368-4.641,2.037-6.268l16.161-15.753     c3.363-3.278,1.507-8.988-3.14-9.663l-22.334-3.245c-2.307-0.335-4.301-1.784-5.332-3.874l-9.988-20.238     C243.768,140.695,237.764,140.695,235.686,144.906z"/>
		</g>
	</g>
	<g>
		<g>
			<g>
				<path class="st7" d="M229.997,207.85c0.394-2.297-0.368-4.641-2.037-6.268l-16.161-15.753c-3.363-3.277-1.507-8.988,3.14-9.663      l22.334-3.245c2.307-0.335,4.3-1.784,5.332-3.874l7.578-15.354l-4.336-8.786c-2.078-4.211-8.082-4.211-10.161,0l-9.988,20.238      c-1.032,2.09-3.025,3.539-5.332,3.874l-22.334,3.245c-4.647,0.675-6.502,6.386-3.14,9.663l16.161,15.753      c1.669,1.627,2.431,3.971,2.037,6.268l-3.815,22.244c-0.794,4.628,4.064,8.158,8.22,5.973l9.158-4.814L229.997,207.85z"/>
			</g>
		</g>
	</g>
	<g>
		<g>
			<path class="st13" d="M478,157.676c-3.313,0-6-2.687-6-6V86.269c0-3.313,2.687-6,6-6s6,2.687,6,6v65.408     C484,154.99,481.313,157.676,478,157.676z"/>
		</g>
	</g>
	<g>
		<g>
			<path class="st4" d="M374.996,324.483c-3.228,0-5.893-2.565-5.993-5.814c-0.23-7.45-2.477-12.981-6.868-16.911     c-8.542-7.644-22.497-6.621-22.636-6.612c-3.296,0.261-6.194-2.187-6.469-5.481s2.158-6.19,5.452-6.475     c0.774-0.069,19.123-1.516,31.579,9.56c6.923,6.155,10.602,14.751,10.936,25.549c0.103,3.312-2.5,6.08-5.812,6.183     C375.122,324.482,375.06,324.483,374.996,324.483z"/>
		</g>
	</g>
	<g>
		<g>
			<circle class="st10" cx="188.039" cy="139.842" r="15.815"/>
		</g>
	</g>
	<g>
		<g>
			<circle class="st7" cx="99.742" cy="297.078" r="15.815"/>
		</g>
	</g>
	<g>
		<g>
			<path class="st4" d="M163.47,186.167c-0.221,0-0.444-0.012-0.669-0.037l-15.241-1.692c-3.293-0.366-5.667-3.332-5.301-6.625     s3.333-5.662,6.625-5.301l15.241,1.692c3.293,0.366,5.667,3.332,5.301,6.625C169.085,183.897,166.487,186.167,163.47,186.167z"/>
		</g>
	</g>
	<g>
		<g>
			<path class="st4" d="M275.236,186.476c-0.222,0-0.445-0.012-0.67-0.037l-15.241-1.692c-3.293-0.366-5.667-3.332-5.301-6.625     c0.366-3.294,3.348-5.661,6.625-5.301l15.241,1.692c3.294,0.366,5.667,3.332,5.301,6.625     C280.852,184.206,278.253,186.476,275.236,186.476z"/>
		</g>
	</g>
</g>
</svg>
