<svg id="Fill_Outline" height="512" viewBox="0 0 64 64" width="512" xmlns="http://www.w3.org/2000/svg" data-name="Fill Outline"><g id="Color"><path d="m10 19h44a4 4 0 0 1 4 4v32a0 0 0 0 1 0 0h-52a0 0 0 0 1 0 0v-32a4 4 0 0 1 4-4z" fill="#ade8f4"/><path d="m58 45v10h-52v-32a4 4 0 0 1 4-4h7v6a19.994 19.994 0 0 0 20 20z" fill="#48cae4"/><path d="m58 23a3.981 3.981 0 0 0 -.348-1.619c-.457-.522-1.028-1.152-1.7-1.85a3.959 3.959 0 0 0 -1.952-.531h-44a4 4 0 0 0 -4 4v5.423c5.217 4.977 14.019 11.577 24 11.577 13.4 0 24.675-11.9 28-15.784z" fill="#48cae4"/><path d="m38 53v2h-12v-2h-23v4a4 4 0 0 0 4 4h50a4 4 0 0 0 4-4v-4z" fill="#e9f1f2"/><path d="m60.9 57.9a4 4 0 0 1 -3.9 3.1h-50a4 4 0 0 1 -4-4v-4h3v1a4 4 0 0 0 4 4h50a4.431 4.431 0 0 0 .9-.1z" fill="#d0d8da"/><path d="m61 20s-12.984 17-29 17-29-17-29-17 12.984-17 29-17 29 17 29 17z" fill="#e9f1f2"/><path d="m38 31c8.74 0 16.59-5.07 21.9-9.67-3.45 4.01-14.63 15.67-27.9 15.67-16.02 0-29-17-29-17s12.98-17 29-17c15.77 0 28.59 16.47 28.99 16.99-.42-.38-13.23-11.99-28.99-11.99-7.8 0-14.88 2.85-20.09 5.77a7.948 7.948 0 0 0 2.52 6.06c5.27 4.92 13.86 11.17 23.57 11.17z" fill="#d0d8da"/><circle cx="32" cy="20" fill="#edb88e" r="17"/><path d="m32 8a38.349 38.349 0 0 1 14.42 3.027 16.966 16.966 0 0 0 -28.84 0 38.337 38.337 0 0 1 14.42-3.027z" fill="#da9367"/><path d="m38 31c-9.362 0-17.679-5.806-22.981-10.633a16.985 16.985 0 0 0 30.972 9.279 25.346 25.346 0 0 1 -7.991 1.354z" fill="#da9367"/><circle cx="32" cy="20" fill="#93999a" r="11"/><path d="m31.89 27.528a2.015 2.015 0 0 1 -2.425-1.4l-1.465-5.128h4l1.312 3.937a2.014 2.014 0 0 1 -1.422 2.591z" fill="#d0d8da"/><path d="m32.89 25.528a2.015 2.015 0 0 1 -2.425-1.4l-.31-1.083a16.8 16.8 0 0 1 2.662.406l-.817-2.451h-4l1.465 5.127a2.012 2.012 0 0 0 3.931-.811 2 2 0 0 1 -.506.212z" fill="#b8bebf"/><path d="m28 16h1a0 0 0 0 1 0 0v6a0 0 0 0 1 0 0h-1a3 3 0 0 1 -3-3 3 3 0 0 1 3-3z" fill="#ef5350"/><path d="m29 22a16.937 16.937 0 0 1 7.578 1.789l.422.211v-10l-.422.211a16.937 16.937 0 0 1 -7.578 1.789z" fill="#e9f1f2"/><path d="m29 20v2h-1a3 3 0 0 1 -2.12-5.12.806.806 0 0 1 .14-.12.974.974 0 0 0 -.02.24 3 3 0 0 0 3 3z" fill="#e53935"/><path d="m37 21.52v2.48l-.42-.21a16.931 16.931 0 0 0 -7.58-1.79v-2h1a16.74 16.74 0 0 1 7 1.52z" fill="#d0d8da"/><circle cx="26.5" cy="10.5" fill="#e9f1f2" r="2.5"/><path d="m32 31a11.024 11.024 0 0 0 2.433-.279 31.725 31.725 0 0 1 -11.359-4.309 10.975 10.975 0 0 0 8.926 4.588z" fill="#656b76"/><path d="m27.658 8.3a2.451 2.451 0 0 0 -2.993.516c.978-.216 1.978-.386 2.993-.516z" fill="#b8bebf"/></g><g id="Outline_copy" fill="#323232" data-name="Outline copy"><path d="m61 52h-2v-28.157c1.664-1.776 2.654-3.051 2.8-3.236a1 1 0 0 0 0-1.215 53.883 53.883 0 0 0 -5.5-5.915 1 1 0 1 0 -1.367 1.46 56.677 56.677 0 0 1 4.782 5.063 54.7 54.7 0 0 1 -14.6 12.285 17.9 17.9 0 0 0 0-24.568 45.61 45.61 0 0 1 6.843 4.633 1 1 0 0 0 1.267-1.55c-7.076-5.758-14.415-8.8-21.225-8.8-16.323 0-29.252 16.683-29.795 17.393a1 1 0 0 0 0 1.214c.543.71 13.472 17.393 29.795 17.393 10.574 0 19.719-7 25-12.123v26.123h-19a1 1 0 0 0 -1 1v1h-10v-1a1 1 0 0 0 -1-1h-19v-23.577a1 1 0 0 0 -2 0v23.577h-2a1 1 0 0 0 -1 1v4a5.006 5.006 0 0 0 5 5h31a1 1 0 0 0 0-2h-31a3 3 0 0 1 -3-3v-3h21v1a1 1 0 0 0 1 1h12a1 1 0 0 0 1-1v-1h21v3a3 3 0 0 1 -3 3h-15a1 1 0 0 0 0 2h15a5.006 5.006 0 0 0 5-5v-4a1 1 0 0 0 -1-1zm-56.714-32a54.7 54.7 0 0 1 14.593-12.283 17.916 17.916 0 0 0 -4.879 12.283 18.138 18.138 0 0 0 .316 3.306 1 1 0 1 0 1.966-.365 16.008 16.008 0 1 1 1.123 3.591 1 1 0 0 0 -1.825.819 17.957 17.957 0 0 0 3.289 4.926 54.707 54.707 0 0 1 -14.583-12.277z"/><circle cx="52" cy="57" r="1"/><circle cx="56" cy="57" r="1"/><circle cx="8" cy="57" r="1"/><circle cx="12" cy="57" r="1"/><path d="m32 32a12 12 0 0 0 1.1-23.95 1 1 0 0 0 -.181 1.992 10.046 10.046 0 1 1 -8.4 3.345 3.525 3.525 0 1 0 -1.266-1.573 11.877 11.877 0 0 0 -3.253 8.186 12.013 12.013 0 0 0 12 12zm-5.5-23a1.5 1.5 0 1 1 -1.5 1.5 1.5 1.5 0 0 1 1.5-1.5z"/><path d="m36.553 24.9a1 1 0 0 0 1.447-.9v-10a1 1 0 0 0 -1.447-.895l-.423.211a16.007 16.007 0 0 1 -7.13 1.684h-1a3.99 3.99 0 0 0 -.483 7.951l.983 3.449a3 3 0 0 0 2.888 2.187 3.054 3.054 0 0 0 .741-.091 3.015 3.015 0 0 0 2.129-3.878l-.265-.8a15.839 15.839 0 0 1 2.135.859zm-10.553-5.9a2 2 0 0 1 2-2v4a2 2 0 0 1 -2-2zm6.363 6.253a1.013 1.013 0 0 1 -.716 1.3 1.012 1.012 0 0 1 -1.221-.7l-.8-2.816a15.924 15.924 0 0 1 2.077.223zm3.637-2.831a18.081 18.081 0 0 0 -6-1.394v-4.056a18.081 18.081 0 0 0 6-1.394z"/><path d="m22 48a1 1 0 0 0 .786-1.618l-11-14a1 1 0 0 0 -1.572 1.236l11 14a1 1 0 0 0 .786.382z"/><path d="m33 47v-6a1 1 0 0 0 -2 0v6a1 1 0 0 0 2 0z"/><path d="m52.214 32.382-11 14a1 1 0 1 0 1.572 1.236l11-14a1 1 0 1 0 -1.572-1.236z"/><path d="m37 48a1 1 0 0 0 .919-.606l3-7a1 1 0 1 0 -1.838-.788l-3 7a1 1 0 0 0 .919 1.394z"/><path d="m27 48a1 1 0 0 0 .919-1.394l-3-7a1 1 0 0 0 -1.838.788l3 7a1 1 0 0 0 .919.606z"/><path d="m52.293 41.293-5 5a1 1 0 1 0 1.414 1.414l5-5a1 1 0 0 0 -1.414-1.414z"/><path d="m11.293 42.293a1 1 0 0 0 0 1.414l4 4a1 1 0 0 0 1.414-1.414l-4-4a1 1 0 0 0 -1.414 0z"/></g></svg>