<svg id="Layer_3" height="512" viewBox="0 0 64 64" width="512" xmlns="http://www.w3.org/2000/svg" data-name="Layer 3"><path d="m9 44h28l-2.143-10h-23.714z" fill="#bce4f8"/><path d="m34.857 34-.179-.838a4 4 0 0 0 -3.912-3.162h-15.532a4 4 0 0 0 -3.912 3.162l-.179.838z" fill="#aa2b24"/><path d="m29 32a2 2 0 0 0 2-1.98c-.078 0-.153-.02-.232-.02h-15.534a3.994 3.994 0 0 0 -3.455 2z" fill="#d24034"/><path d="m33 34h-21.857l-1.714 8h20.571a3 3 0 0 0 3-3z" fill="#e4f5fd"/><path d="m28 30v-24a4 4 0 0 1 4-4h26a4 4 0 0 1 4 4v24a4 4 0 0 1 -4 4h-11l-4 4v-4h-11a4 4 0 0 1 -4-4z" fill="#ccc"/><path d="m59 26v-23.859a3.977 3.977 0 0 0 -1-.141h-26a4 4 0 0 0 -4 4v24h27a4 4 0 0 0 4-4z" fill="#f2f2f2"/><rect fill="#fff" height="16" rx="2" width="23" x="32" y="7"/><path d="m33 12h24v16h-24z" fill="#2763bb"/><path d="m33 12v13h19a3 3 0 0 0 3-3v-10z" fill="#3079e6"/><rect fill="#73a4ea" height="8" rx="2" width="13" x="36" y="15"/><path d="m37 44h-28a5 5 0 0 0 -5 5v5h38v-5a5 5 0 0 0 -5-5z" fill="#aa2b24"/><path d="m36 52a3 3 0 0 0 3-3v-4.578a4.979 4.979 0 0 0 -2-.422h-28a5 5 0 0 0 -5 5v3z" fill="#d24034"/><path d="m10.5 37h-2.5a2 2 0 0 0 0 4h1.643z" fill="#aa2b24"/><path d="m38 37h-2.5l.857 4h1.643a2 2 0 0 0 0-4z" fill="#aa2b24"/><path d="m6 58v2a2 2 0 0 0 2 2h6a2 2 0 0 0 2-2v-2z" fill="#686868"/><path d="m14 58h-8v2h6a2 2 0 0 0 2-2z" fill="#939393"/><path d="m2 54h42v4h-42z" fill="#686868"/><path d="m2 56h38a2 2 0 0 0 2-2h-40z" fill="#939393"/><circle cx="36" cy="49" fill="#f3a845" r="2"/><path d="m16 48h14v6h-14z" fill="#f3a845"/><path d="m16 50h14v2h-14z" fill="#eecc61"/><path d="m30 58v2a2 2 0 0 0 2 2h6a2 2 0 0 0 2-2v-2z" fill="#686868"/><path d="m38 58h-8v2h6a2 2 0 0 0 2-2z" fill="#939393"/><rect fill="#fff" height="4" rx="2" width="12" x="14" y="36"/><path d="m36 47a1.988 1.988 0 0 0 -1.723 3h.723a2 2 0 0 0 2-2v-.723a1.987 1.987 0 0 0 -1-.277z" fill="#eecc61"/><circle cx="10" cy="49" fill="#f3a845" r="2"/><path d="m10 47a1.988 1.988 0 0 0 -1.723 3h.723a2 2 0 0 0 2-2v-.723a1.987 1.987 0 0 0 -1-.277z" fill="#eecc61"/><path d="m35 8h4v4h-4z" fill="#2763bb"/><path d="m51 8h4v4h-4z" fill="#2763bb"/><g fill="#f3a845"><path d="m48 19h6v2h-6z"/><path d="m40 17h-2v2h-2v2h2v2h2v-2h2v-2h-2z"/></g></svg>