<svg height="512pt" viewBox="0 -32 512 512" width="512pt" xmlns="http://www.w3.org/2000/svg" xmlns:xlink="http://www.w3.org/1999/xlink"><linearGradient id="a" gradientUnits="userSpaceOnUse" x1="138.666684" x2="330.666708" y1="352.000048" y2="160.000024"><stop offset="0" stop-color="#b3e152"/><stop offset="1" stop-color="#f6e46f"/></linearGradient><path d="m426.667969 0h-85.335938c-11.78125 0-21.332031 9.550781-21.332031 21.332031v64c0 11.78125 9.550781 21.335938 21.332031 21.335938h85.335938c11.78125 0 21.332031-9.554688 21.332031-21.335938v-64c0-11.78125-9.550781-21.332031-21.332031-21.332031zm0 0" fill="#b3e152"/><path d="m362.667969 85.332031v-64c0-11.78125 9.550781-21.332031 21.332031-21.332031h-42.667969c-11.78125 0-21.332031 9.550781-21.332031 21.332031v64c0 11.78125 9.550781 21.335938 21.332031 21.335938h42.667969c-11.78125 0-21.332031-9.554688-21.332031-21.335938zm0 0" fill="#a0d927"/><path d="m170.667969 0h-85.335938c-11.78125 0-21.332031 9.550781-21.332031 21.332031v64c0 11.78125 9.550781 21.335938 21.332031 21.335938h85.335938c11.78125 0 21.332031-9.554688 21.332031-21.335938v-64c0-11.78125-9.550781-21.332031-21.332031-21.332031zm0 0" fill="#b3e152"/><path d="m106.667969 85.332031v-64c0-11.78125 9.550781-21.332031 21.332031-21.332031h-42.667969c-11.78125 0-21.332031 9.550781-21.332031 21.332031v64c0 11.78125 9.550781 21.335938 21.332031 21.335938h42.667969c-11.78125 0-21.332031-9.554688-21.332031-21.335938zm0 0" fill="#a0d927"/><path d="m64 405.332031h42.667969v42.667969h-42.667969zm0 0" fill="#b3e152"/><path d="m405.332031 405.332031h42.667969v42.667969h-42.667969zm0 0" fill="#b3e152"/><path d="m490.667969 64h-469.335938c-11.78125 0-21.332031 9.550781-21.332031 21.332031v320c0 11.78125 9.550781 21.335938 21.332031 21.335938h469.335938c11.78125 0 21.332031-9.554688 21.332031-21.335938v-320c0-11.78125-9.550781-21.332031-21.332031-21.332031zm0 0" fill="#ecf7d4"/><path d="m64 384c-11.78125 0-21.332031-9.550781-21.332031-21.332031v-298.667969h-21.335938c-11.78125 0-21.332031 9.550781-21.332031 21.332031v320c0 11.78125 9.550781 21.335938 21.332031 21.335938h469.335938c11.78125 0 21.332031-9.554688 21.332031-21.335938v-21.332031zm0 0" fill="#e2f4be"/><path d="m170.667969 384 42.664062-128h-64l149.335938-128-42.667969 128h64zm0 0" fill="url(#a)"/></svg>