<svg id="Layer_3" enable-background="new 0 0 64 64" height="512" viewBox="0 0 64 64" width="512" xmlns="http://www.w3.org/2000/svg"><path d="m10 53h-6c-1.105 0-2-.895-2-2v-6.958c0-2.358 1.647-4.395 3.952-4.889l10.048-2.153 8.199-10.658c1.135-1.477 2.893-2.342 4.755-2.342h12.091c1.863 0 3.62.865 4.756 2.342l8.199 10.658 8 4v10c0 1.105-.895 2-2 2h-6" fill="#669e4f"/><path d="m45.801 26.342c-1.135-1.477-2.893-2.342-4.755-2.342h-12.092c-1.863 0-3.62.865-4.756 2.342l-8.198 10.658-10.048 2.153c-2.305.494-3.952 2.531-3.952 4.889v.658c5.014 2.7 11.246 4.3 18 4.3 14.802 0 27.092-7.685 29.546-17.79z" fill="#78b75b"/><path d="m49 38-6.104-8.72c-.562-.802-1.479-1.28-2.458-1.28h-10.876c-.979 0-1.896.478-2.458 1.28l-6.104 8.72z" fill="#c7e2fc"/><path d="m22.73 35.529c1.511.304 3.111.471 4.77.471 6.91 0 12.82-2.835 15.277-6.853-.567-.714-1.42-1.147-2.339-1.147h-10.876c-.979 0-1.896.478-2.458 1.28z" fill="#ebf7fe"/><circle cx="45" cy="19" fill="#a1cdfb" r="17"/><path d="m43 12v-6h-4v6" fill="#8892a0"/><path d="m49 12h-9c-2.209 0-4 1.791-4 4v12c0 1.105.895 2 2 2h14c1.105 0 2-.895 2-2v-11zm1 11h-5v-7h2l3 3z" fill="#c66b60"/><path d="m45 23v-7h2l2.65 2.65c.22-.85.35-1.735.35-2.65 0-1.289-.244-2.52-.669-3.669l-.331-.331h-9c-2.209 0-4 1.791-4 4v10.732c.806.171 1.64.268 2.5.268 3.571 0 6.762-1.557 8.871-4z" fill="#e47c6e"/><path d="m8 21v-1l3-6 3 6v1c0 1.657-1.343 3-3 3s-3-1.343-3-3z" fill="#a1cdfb"/><path d="m2 44.042v2.956l4 .002v-4l-3.878-.002c-.072.339-.122.686-.122 1.044z" fill="#f9d18b"/><path d="m58 49h4v-8l-4-2z" fill="#e47c6e"/><circle cx="17" cy="53" fill="#4d5d7a" r="7"/><circle cx="47" cy="53" fill="#4d5d7a" r="7"/><circle cx="17" cy="53" fill="#8892a0" r="3"/><circle cx="47" cy="53" fill="#8892a0" r="3"/><path d="m1 61h62v2h-62z"/><path d="m17 61c-4.411 0-8-3.589-8-8s3.589-8 8-8 8 3.589 8 8-3.589 8-8 8zm0-14c-3.309 0-6 2.691-6 6s2.691 6 6 6 6-2.691 6-6-2.691-6-6-6z"/><path d="m17 57c-2.206 0-4-1.794-4-4s1.794-4 4-4 4 1.794 4 4-1.794 4-4 4zm0-6c-1.103 0-2 .897-2 2s.897 2 2 2 2-.897 2-2-.897-2-2-2z"/><path d="m47 61c-4.411 0-8-3.589-8-8s3.589-8 8-8 8 3.589 8 8-3.589 8-8 8zm0-14c-3.309 0-6 2.691-6 6s2.691 6 6 6 6-2.691 6-6-2.691-6-6-6z"/><path d="m47 57c-2.206 0-4-1.794-4-4s1.794-4 4-4 4 1.794 4 4-1.794 4-4 4zm0-6c-1.103 0-2 .897-2 2s.897 2 2 2 2-.897 2-2-.897-2-2-2z"/><path d="m24 52h16v2h-16z"/><path d="m60 54h-6v-2h6c.551 0 1-.448 1-1v-9.382l-7.447-3.724c-.135-.067-.253-.165-.345-.285l-1.945-2.529 1.585-1.219 1.806 2.347 7.794 3.897c.338.17.552.516.552.895v10c0 1.654-1.346 3-3 3z"/><path d="m10 54h-6c-1.654 0-3-1.346-3-3v-6.958c0-2.811 1.995-5.277 4.743-5.866l9.688-2.076 7.975-10.367c1.278-1.661 3.212-2.655 5.307-2.728l.069 1.998c-1.497.052-2.878.762-3.791 1.948l-8.199 10.658c-.145.188-.351.318-.583.368l-10.047 2.154c-1.832.392-3.162 2.038-3.162 3.911v6.958c0 .552.449 1 1 1h6z"/><path d="m62 50h-4c-.552 0-1-.447-1-1v-10h2v9h3z"/><path d="m49 39h-28c-.373 0-.715-.207-.887-.538s-.146-.729.068-1.035l6.104-8.721c.748-1.068 1.973-1.706 3.277-1.706h1.014v2h-1.014c-.652 0-1.265.318-1.638.853l-5.004 7.147h24.16l-.424-.606 1.639-1.146 1.525 2.18c.214.306.24.704.067 1.035-.172.33-.514.537-.887.537z"/><path d="m34 33h2v5h-2z"/><path d="m32 41h4v2h-4z"/><path d="m46 41h4v2h-4z"/><path d="m6 48h-4v-2h3v-2h-3v-2h4c.552 0 1 .447 1 1v4c0 .553-.448 1-1 1z"/><path d="m8 19.241h2v20.518h-2z" transform="matrix(.731 -.682 .682 .731 -17.708 14.075)"/><path d="m2.176 33.077h10.601v2h-10.601z" transform="matrix(.287 -.958 .958 .287 -27.312 31.455)"/><path d="m52 31h-14c-1.654 0-3-1.346-3-3v-12c0-2.757 2.243-5 5-5h9c.265 0 .52.105.707.293l5 5c.188.187.293.441.293.707v11c0 1.654-1.346 3-3 3zm-12-18c-1.654 0-3 1.346-3 3v12c0 .552.449 1 1 1h14c.551 0 1-.448 1-1v-10.586l-4.414-4.414z"/><path d="m50 24h-5c-.552 0-1-.447-1-1v-7c0-.553.448-1 1-1h2c.265 0 .52.105.707.293l3 3c.188.187.293.441.293.707v4c0 .553-.448 1-1 1zm-4-2h3v-2.586l-2.414-2.414h-.586z"/><path d="m44 12h-2v-5h-2v5h-2v-6c0-.553.448-1 1-1h4c.552 0 1 .447 1 1z"/><path d="m45 37c-9.925 0-18-8.075-18-18s8.075-18 18-18 18 8.075 18 18-8.075 18-18 18zm0-34c-8.822 0-16 7.178-16 16s7.178 16 16 16 16-7.178 16-16-7.178-16-16-16z"/><path d="m11 25c-2.206 0-4-1.794-4-4v-1c0-.155.036-.309.105-.447l3-6c.339-.678 1.45-.678 1.789 0l3 6c.07.138.106.292.106.447v1c0 2.206-1.794 4-4 4zm-2-4.764v.764c0 1.103.897 2 2 2s2-.897 2-2v-.764l-2-4z"/></svg>