<svg id="icon" height="512" viewBox="0 0 128 128" width="512" xmlns="http://www.w3.org/2000/svg"><path d="m10.287 69.128h7.079v22.303h-7.079z" fill="#ef5361"/><path d="m17.366 92.431h-7.079a1 1 0 0 1 -1-1v-22.3a1 1 0 0 1 1-1h7.079a1 1 0 0 1 1 1v22.3a1 1 0 0 1 -1 1zm-6.079-2h5.079v-20.3h-5.079z" fill="#2f3a5a"/><path d="m7.105 80.256h13.441v23.265h-13.441z" fill="#ef5361"/><path d="m20.547 104.521h-13.442a1 1 0 0 1 -1-1v-23.265a1 1 0 0 1 1-1h13.442a1 1 0 0 1 1 1v23.265a1 1 0 0 1 -1 1zm-12.441-2h11.441v-21.265h-11.442z" fill="#2f3a5a"/><path d="m22.714 103.521h-17.776a1.991 1.991 0 0 0 0 3.981h17.776a1.991 1.991 0 0 0 0-3.981z" fill="#ef5361"/><path d="m22.714 108.5h-17.776a2.99 2.99 0 1 1 0-5.981h17.776a2.99 2.99 0 1 1 0 5.981zm-17.776-3.979a.99.99 0 1 0 0 1.981h17.776a.99.99 0 1 0 0-1.981z" fill="#2f3a5a"/><path d="m1 91.888h6.105v4.915h-6.105z" fill="#ef5361"/><path d="m7.105 97.8h-6.105a1 1 0 0 1 -1-1v-4.912a1 1 0 0 1 1-1h6.105a1 1 0 0 1 1 1v4.912a1 1 0 0 1 -1 1zm-5.105-2h4.105v-2.912h-4.105z" fill="#2f3a5a"/><rect fill="#3a556a" height="16.145" rx="3.297" transform="matrix(.134 -.991 .991 .134 -3.861 183.123)" width="25.559" x="90.101" y="85.699"/><path d="m106.348 108.107a4.314 4.314 0 0 1 -.586-.04l-9.462-1.282a4.3 4.3 0 0 1 -3.681-4.835l2.548-18.793a4.3 4.3 0 0 1 4.833-3.681l9.463 1.283a4.3 4.3 0 0 1 3.681 4.835l-2.544 18.793a4.3 4.3 0 0 1 -4.249 3.721zm-6.926-26.671a2.3 2.3 0 0 0 -2.275 1.989l-2.547 18.793a2.3 2.3 0 0 0 1.968 2.585l9.463 1.283a2.3 2.3 0 0 0 2.585-1.968l2.548-18.793a2.3 2.3 0 0 0 -1.964-2.585l-9.463-1.283a2.386 2.386 0 0 0 -.315-.021z" fill="#2f3a5a"/><rect fill="#3a556a" height="16.145" rx="3.297" transform="matrix(.134 -.991 .991 .134 -61.156 95.981)" width="25.559" x="11.577" y="74.921"/><path d="m27.824 97.33a4.312 4.312 0 0 1 -.586-.04l-9.463-1.283a4.3 4.3 0 0 1 -3.681-4.835l2.548-18.793a4.3 4.3 0 0 1 4.835-3.679l9.463 1.28a4.3 4.3 0 0 1 3.681 4.835l-2.548 18.793a4.3 4.3 0 0 1 -4.25 3.721zm-6.929-26.672a2.3 2.3 0 0 0 -2.272 1.989l-2.548 18.793a2.3 2.3 0 0 0 1.968 2.585l9.463 1.283a2.3 2.3 0 0 0 2.585-1.968l2.547-18.792a2.3 2.3 0 0 0 -1.968-2.585l-9.463-1.283a2.342 2.342 0 0 0 -.312-.022z" fill="#2f3a5a"/><path d="m118.191 77.359a68.214 68.214 0 0 1 -4.1 13.873 7.345 7.345 0 0 1 -7.781 4.434l-42.801-5.818-.1-.014-42.833-5.8a7.309 7.309 0 0 1 -6.305-6.331 68.286 68.286 0 0 1 -.21-14.948c.234-2.343.571-4.378.909-6.069a22.191 22.191 0 0 1 3.845-8.642l6.757-9.307s12.492-20.546 16.754-21.755c2.068-.589 9.309-.176 16.28.42 6.947.592 13.6 1.339 14.422 1.43l.048.007.048.007c1.654.259 26.431 4.16 30.087 6.369 3.786 2.325 10.358 25.45 10.358 25.45l4.036 10.763a22.21 22.21 0 0 1 1.395 9.382 56.4 56.4 0 0 1 -.809 6.549z" fill="#8ae0a1"/><path d="m118.186 77.362a67.608 67.608 0 0 1 -4.1 13.875 7.347 7.347 0 0 1 -7.772 4.435l-42.806-5.826-.1-.013-42.823-5.792a7.3 7.3 0 0 1 -6.306-6.331 67.7 67.7 0 0 1 -.216-14.95c.235-2.347.577-4.382.908-6.072.084-.435.193-.866.314-1.3a67.627 67.627 0 0 0 .331 13.479 7.3 7.3 0 0 0 6.306 6.333l42.836 5.805.085.012 42.81 5.814a7.336 7.336 0 0 0 7.784-4.434 70.624 70.624 0 0 0 3.526-11.066 57.361 57.361 0 0 1 -.777 6.031z" fill="#6fc682"/><path d="m107.31 96.733a8.486 8.486 0 0 1 -1.129-.076l-42.909-5.832-42.826-5.8a8.288 8.288 0 0 1 -7.164-7.2 69.287 69.287 0 0 1 -.212-15.166c.207-2.071.509-4.088.923-6.166a23.333 23.333 0 0 1 4.018-9.036l6.755-9.3c2.074-3.419 12.872-20.879 17.288-22.131.69-.2 2.794-.8 16.638.385 6.133.523 12.1 1.171 14.38 1.425l.144.018c4.5.7 26.821 4.28 30.514 6.51 3.925 2.411 9.688 22.108 10.8 26.032l4.011 10.685a23.122 23.122 0 0 1 1.451 9.807 57.175 57.175 0 0 1 -.819 6.654 69.176 69.176 0 0 1 -4.155 14.075 8.327 8.327 0 0 1 -7.708 5.116zm-61.28-79.033a14.417 14.417 0 0 0 -3.43.249c-2.83.8-11.421 13.5-16.171 21.314l-6.8 9.375a21.318 21.318 0 0 0 -3.674 8.254c-.4 2.008-.693 3.962-.894 5.968a67.248 67.248 0 0 0 .208 14.729 6.29 6.29 0 0 0 5.445 5.46l42.937 5.812 42.8 5.818a6.346 6.346 0 0 0 6.722-3.825 67.187 67.187 0 0 0 4.036-13.667 55.309 55.309 0 0 0 .791-6.438 21.141 21.141 0 0 0 -1.329-8.973l-4.036-10.761c-2.525-8.874-7.429-23.4-9.945-24.949-2.8-1.688-20.663-4.816-29.718-6.233l-.12-.015c-2.273-.253-8.219-.9-14.329-1.42-6.267-.535-10.123-.698-12.493-.698z" fill="#2f3a5a"/><path d="m106.168 48.09-36.193-4.906-.085-.012-10.012-1.361-4.7-.632-2.968-.407-2.459-.325h-.012l-16.039-2.18 9.941-15.91a2.544 2.544 0 0 1 2.428-1.166l19.459 2.109h.012l2.491.268 3.04.331 1.452.162.037.005 3.177.51 23.056 3.747a2.535 2.535 0 0 1 2.022 1.789z" fill="#cee7fd"/><path d="m48.073 76.326 33.765 4.635" fill="#d9e2e9"/><path d="m81.84 81.961a1 1 0 0 1 -.137-.009l-33.765-4.635a1 1 0 1 1 .271-1.981l33.765 4.634a1 1 0 0 1 -.134 1.991z" fill="#2f3a5a"/><path d="m47.444 80.907 33.766 4.635" fill="#d9e2e9"/><path d="m81.211 86.542a1 1 0 0 1 -.137-.009l-33.765-4.633a1 1 0 1 1 .271-1.981l33.766 4.634a1 1 0 0 1 -.134 1.991z" fill="#2f3a5a"/><g fill="#fff" opacity=".75"><path d="m68.032 23.573-15.819 17.198-2.458-.325 15.773-17.142.013.002z"/><path d="m75.738 24.581-15.86 17.23-4.697-.633 15.891-17.274 1.453.162.036.005z"/></g><path d="m106.17 49.092a.96.96 0 0 1 -.134-.009l-72.479-9.827a1 1 0 0 1 -.713-1.521l9.948-15.9a3.543 3.543 0 0 1 3.378-1.64l26.46 2.876q.048.005.094.015l26.23 4.266a3.553 3.553 0 0 1 2.82 2.48l5.354 17.979a1 1 0 0 1 -.958 1.286zm-70.81-11.609 69.41 9.41-4.913-16.493a1.542 1.542 0 0 0 -1.224-1.076l-26.233-4.269h-.01l-26.436-2.876a1.537 1.537 0 0 0 -1.466.711z" fill="#2f3a5a"/><rect fill="#d9e2e9" height="14.886" rx="2.333" transform="matrix(.136 -.991 .991 .136 1.765 174.349)" width="7.076" x="97.302" y="78.72"/><path d="m105.74 91.385a3.34 3.34 0 0 1 -.455-.031l-10.125-1.391a3.332 3.332 0 0 1 -2.849-3.755l.328-2.388a3.332 3.332 0 0 1 3.755-2.848l10.125 1.39a3.338 3.338 0 0 1 2.849 3.755l-.328 2.383a3.338 3.338 0 0 1 -3.3 2.885zm-9.8-8.444a1.332 1.332 0 0 0 -1.317 1.151l-.328 2.389a1.332 1.332 0 0 0 1.14 1.5l10.125 1.39a1.333 1.333 0 0 0 1.5-1.139l.328-2.388a1.335 1.335 0 0 0 -1.14-1.5l-10.125-1.39a1.39 1.39 0 0 0 -.185-.013z" fill="#2f3a5a"/><rect fill="#d9e2e9" height="14.886" rx="2.333" transform="matrix(.136 -.991 .991 .136 -50.993 93.962)" width="7.076" x="24.835" y="68.773"/><path d="m33.279 81.438a3.41 3.41 0 0 1 -.46-.032l-10.125-1.39a3.334 3.334 0 0 1 -2.849-3.755l.328-2.388a3.332 3.332 0 0 1 3.755-2.848l10.125 1.39a3.338 3.338 0 0 1 2.847 3.755l-.328 2.389a3.334 3.334 0 0 1 -3.294 2.88zm-9.808-8.444a1.334 1.334 0 0 0 -1.317 1.151l-.328 2.389a1.333 1.333 0 0 0 1.14 1.5l10.125 1.39a1.332 1.332 0 0 0 1.5-1.139l.329-2.385a1.335 1.335 0 0 0 -1.14-1.5l-10.125-1.39a1.378 1.378 0 0 0 -.183-.016z" fill="#2f3a5a"/><path d="m111.059 65.045-11.125-.645a1.982 1.982 0 0 0 -1.868 1.054l-2.961 5.615a1.982 1.982 0 0 0 1.654 2.9l12.7.635a1.982 1.982 0 0 0 2.023-1.5l1.39-5.6a1.982 1.982 0 0 0 -1.813-2.459z" fill="#d9e2e9"/><path d="m109.555 75.609c-.049 0-.1 0-.149 0l-12.7-.635a2.982 2.982 0 0 1 -2.486-4.374l2.962-5.615a3.026 3.026 0 0 1 2.81-1.586l11.125.646a2.983 2.983 0 0 1 2.722 3.7l-1.39 5.6a2.988 2.988 0 0 1 -2.894 2.264zm-9.735-10.209a.984.984 0 0 0 -.869.524l-2.962 5.615a.983.983 0 0 0 .82 1.439l12.7.635a.983.983 0 0 0 1-.745l1.39-5.6a.981.981 0 0 0 -.9-1.217l-11.123-.651z" fill="#2f3a5a"/><path d="m24.221 53.126 10.888 2.374a1.982 1.982 0 0 1 1.515 1.518l1.339 6.2a1.982 1.982 0 0 1 -2.376 2.351l-12.4-2.81a1.982 1.982 0 0 1 -1.543-1.992l.173-5.767a1.982 1.982 0 0 1 2.404-1.874z" fill="#d9e2e9"/><path d="m36.031 66.625a3 3 0 0 1 -.665-.075l-12.4-2.81a2.987 2.987 0 0 1 -2.322-3l.171-5.771a2.983 2.983 0 0 1 3.616-2.825l10.888 2.375a2.99 2.99 0 0 1 2.28 2.284l1.339 6.206a2.983 2.983 0 0 1 -2.909 3.612zm-12.238-12.545a.984.984 0 0 0 -.976.954l-.171 5.766a.985.985 0 0 0 .765.987l12.4 2.81a.982.982 0 0 0 1.177-1.165l-1.342-6.202a.985.985 0 0 0 -.751-.752l-10.887-2.378a1.007 1.007 0 0 0 -.215-.02z" fill="#2f3a5a"/><rect fill="#9297ab" height="10.928" rx="1.85" transform="matrix(.136 -.991 .991 .136 60.551 159.606)" width="8.072" x="117.744" y="39.624"/><path d="m125.065 50.6a2.858 2.858 0 0 1 -.39-.027l-7.16-.982a2.854 2.854 0 0 1 -2.437-3.211l.595-4.332a2.85 2.85 0 0 1 3.211-2.436l7.16.983a2.85 2.85 0 0 1 2.437 3.211l-.594 4.331a2.855 2.855 0 0 1 -2.822 2.463zm-6.57-9.015a.85.85 0 0 0 -.84.734l-.595 4.332a.852.852 0 0 0 .727.958l7.16.982a.853.853 0 0 0 .958-.727l.594-4.331a.85.85 0 0 0 -.727-.958l-7.16-.983a.865.865 0 0 0 -.112-.011z" fill="#2f3a5a"/><path d="m116.343 47.741-2.879 3.008" fill="#9297ab"/><path d="m112.821 48.245h4.164v2h-4.164z" fill="#2f3a5a" transform="matrix(.691 -.723 .723 .691 -.113 98.226)"/><rect fill="#9297ab" height="10.928" rx="1.85" transform="matrix(.136 -.991 .991 .136 -14.077 45.895)" width="8.072" x="15.238" y="25.554"/><path d="m22.558 36.525a2.761 2.761 0 0 1 -.389-.026l-7.161-.983a2.854 2.854 0 0 1 -2.436-3.211l.595-4.332a2.85 2.85 0 0 1 3.211-2.436l7.16.983a2.85 2.85 0 0 1 2.436 3.211l-.594 4.331a2.856 2.856 0 0 1 -2.822 2.463zm-6.569-9.015a.85.85 0 0 0 -.84.735l-.595 4.332a.852.852 0 0 0 .727.958l7.16.983a.854.854 0 0 0 .958-.727l.594-4.331a.85.85 0 0 0 -.727-.958l-7.161-.983a.867.867 0 0 0 -.116-.008z" fill="#2f3a5a"/><path d="m23.796 35.038 1.961 3.673" fill="#9297ab"/><path d="m23.776 34.792h2.001v4.164h-2.001z" fill="#2f3a5a" transform="matrix(.882 -.471 .471 .882 -14.448 16.017)"/><path d="m47.801 60.472h38.013v9.353h-38.013z" fill="#f0f5f9" transform="matrix(.991 .136 -.136 .991 9.48 -8.48)"/><path d="m85 73.366a.983.983 0 0 1 -.136-.009l-37.66-5.169a1 1 0 0 1 -.854-1.126l1.271-9.266a1 1 0 0 1 .386-.661 1.017 1.017 0 0 1 .74-.194l37.663 5.168a1 1 0 0 1 .855 1.127l-1.272 9.264a1 1 0 0 1 -.991.864zm-36.531-7.024 35.679 4.9 1-7.286-35.679-4.9z" fill="#2f3a5a"/></svg>