<svg id="Capa_1" enable-background="new 0 0 512 512" height="512" viewBox="0 0 512 512" width="512" xmlns="http://www.w3.org/2000/svg"><g><g><path d="m345.17 61.596-8.298 11.021c-2.444 3.3-.089 7.976 4.018 7.976l3.61 1.103h43c8.284 0 15 6.716 15 15 0 8.284-6.716 15-15 15h-17.676l-13.372.4c-32.032 0-54.601 5.568-54.601 37.6l64.17 6.964 76.479-6.964v-44c0-28.167-22.833-51-51-51h-21.053l-13.223.828c-4.753 0-9.225 2.253-12.054 6.072z" fill="#ddebfd"/><g fill="#cde2ff"><path d="m372.06 54.7c-4.76 0-9.23 2.25-12.06 6.07l-15.5 20.926-6.07.004c-4.11 0-6.47-4.68-4.02-7.98l9.59-12.95c2.83-3.82 7.3-6.07 12.06-6.07z"/><path d="m372.5 111.7c-32.03 0-58 9.768-58 38l-7.883 4.449-8.117-4.449c0-20.987 17.013-38 38-38z"/><path d="m452.149 174.696h-173.617v-2c0-9.931 12.08-21.612 12.08-21.612 2.46-.898 5.117-1.388 7.888-1.388h154c1.657 0 3 1.343 3 3v10.004z"/></g><path d="m455.5 162.7v12l-93.989 7.491-86.011-7.491v-2c0-9.94 6.302-18.386 15.112-21.616-.643 1.385-1.289 3.398-1.699 5.707-.546 3.076 1.797 5.909 4.921 5.909z" fill="#bed9fd"/><g><path d="m173 69.696h-108c-1.849 0-3.632.287-5.305.818 0 0-10.014 8.866-10.014 16.681 0 9.665 7.527 15.846 17.191 15.846l103.447.213c8.457 0 19.825-12.532 19.825-12.532.233-1.139.356-2.319.356-3.527 0-9.664-7.835-17.499-17.5-17.499z" fill="#ffe07d"/><path d="m190.144 90.723c-1.62 7.99-8.684 13.977-17.144 13.977l-52.91 7.364-55.09-7.364c-4.83 0-9.2-1.96-12.37-5.13s-5.13-7.54-5.13-12.37c0-7.82 5.125-14.455 12.195-16.685-.13.87-.195 1.775-.195 2.685 0 4.83 1.96 9.2 5.13 12.37s7.54 5.13 12.37 5.13z" fill="#ffd064"/></g><g><path d="m173 104.696h-108c-1.849 0-3.632.287-5.305.818 0 0-10.014 8.866-10.014 16.681 0 9.665 7.527 15.846 17.191 15.846l103.447.213c8.457 0 19.825-12.532 19.825-12.532.233-1.139.356-2.319.356-3.527 0-9.664-7.835-17.499-17.5-17.499z" fill="#daf1a1"/><path d="m190.144 125.723c-1.62 7.99-8.684 13.977-17.144 13.977l-52.91 7.364-55.09-7.364c-4.83 0-9.2-1.96-12.37-5.13s-5.13-7.54-5.13-12.37c0-7.82 5.125-14.455 12.195-16.685-.13.87-.195 1.775-.195 2.685 0 4.83 1.96 9.2 5.13 12.37s7.54 5.13 12.37 5.13z" fill="#c9eb74"/></g><path d="m173 139.696h-108c-2.299 0-4.495.443-6.506 1.249 0 0-8.643 8.885-8.643 16.251v17.5h138.723l1.926-13.996v-3.504c0-9.665-7.835-17.5-17.5-17.5z" fill="#ddebfd"/><path d="m190.5 160.7v14l-74.096 13.109-68.904-13.109v-17.5c0-7.37 4.544-13.685 10.994-16.255l.006 9.755c0 5.523 4.477 10 10 10z" fill="#cde2ff"/><path d="m193.006 190.696 218.89 261.595c1.631 1.949.251 4.917-2.291 4.925l-17.645.057-8.077-1.674c-3.568.012-6.956-1.565-9.244-4.302l-212.107-260.601z" fill="#857e87"/><path d="m391.96 457.274-9.33.026c-3.57.02-6.96-1.56-9.25-4.3l-219.33-262.3h15z" fill="#6f6571"/><path d="m357.953 190.696-219.336 262.306c-2.289 2.737-5.677 4.314-9.244 4.302l-17.412-.056-8.095-.45c-2.542-.008-3.922-2.976-2.291-4.925l227.681-261.176h28.697z" fill="#857e87"/><path d="m111.96 457.248-9.57-.028c-2.54-.01-3.92-2.98-2.29-4.93l218.89-261.59h16z" fill="#6f6571"/><path d="m495.468 205.426-478.851-1.149c-3.866 0-7-3.134-7-7l-.149-13.426c0-3.866 3.134-7 7-7l5.032-2.155h285l81.394 6.474 67.606-6.474h42c3.866 0 7 3.134 7 7v11.004l-2.032 5.726c0 3.866-3.134 7-7 7z" fill="#ffe07d"/><path d="m504.5 192.7v7c0 3.86-3.13 7-7 7h-483c-3.87 0-7-3.14-7-7v-18c0-3.866 3.134-7 7-7h7l.043 8.053c.029 5.502 4.498 9.947 10 9.947z" fill="#ffd064"/><circle cx="256" cy="288.696" fill="#e9edf1" r="27.5"/><path d="m364.019 248.915h-47.631c-2.529 0-4.58-2.143-4.58-4.786v-66.406l7.691-3.027h44.519l5.662 42.53z" fill="#efa5c4"/><path d="m363.5 238.23 5.16 6.94-5.16 7.06h-52c-2.76 0-5-2.23-5-5v-72.53h13l.009 53.532c.001 5.522 4.478 9.998 10 9.998z" fill="#e592b8"/><path d="m445.426 291.196h-73.021c-2.761 0-5-2.239-5-5l-.787-108.26 10.883-3.24h78v106.004l-5.074 5.496c-.001 2.761-2.24 5-5.001 5z" fill="#efa5c4"/><path d="m455.5 280.7v9c0 2.761-2.239 5-5 5h-82c-2.761 0-5-2.239-5-5v-115h14v96c0 5.523 4.477 10 10 10z" fill="#e592b8"/></g><g><path d="m498.186 167.231c2.976-14.987.821-27.618-6.475-37.632-11.066-15.189-30.894-19.599-41.711-20.879v-.023-3c0-32.257-26.243-58.5-58.5-58.5h-35.444c-7.097 0-13.855 3.404-18.08 9.107l-9.594 12.952c-2.827 3.816-3.256 8.822-1.119 13.064s6.415 6.877 11.164 6.877h49.073c4.136 0 7.5 3.364 7.5 7.5s-3.364 7.5-7.5 7.5h-51c-22.83 0-41.78 16.902-45.009 38.849l-.156.009c-11.621 2.809-20.66 12.287-22.829 24.142h-70.506v-10c0-6.809-2.739-12.987-7.169-17.5 4.43-4.513 7.169-10.691 7.169-17.5s-2.739-12.987-7.169-17.5c4.43-4.513 7.169-10.691 7.169-17.5 0-13.785-11.215-25-25-25h-108c-13.785 0-25 11.215-25 25 0 6.809 2.739 12.987 7.169 17.5-4.43 4.513-7.169 10.691-7.169 17.5s2.739 12.987 7.169 17.5c-4.43 4.513-7.169 10.691-7.169 17.5v10h-25.5c-7.995 0-14.5 6.505-14.5 14.5v18c0 7.995 6.505 14.5 14.5 14.5h33c4.142 0 7.5-3.358 7.5-7.5s-3.358-7.5-7.5-7.5h-32.5v-17h284v17h-216.5c-4.142 0-7.5 3.358-7.5 7.5s3.358 7.5 7.5 7.5h81.421l57.547 68.821c-.381 2.047-.793 7.522.175 12.336l-127.29 152.124c-2.642 3.156-3.204 7.435-1.469 11.167 1.736 3.732 5.371 6.059 9.487 6.072l26.977.087h.064c5.792 0 11.242-2.546 14.958-6.991l44.69-53.444c2.657-3.178 2.235-7.908-.942-10.564-3.178-2.658-7.908-2.236-10.564.942l-44.69 53.445c-.857 1.025-2.115 1.613-3.452 1.613-.005 0-.01 0-.015 0l-17.384-.056 116.579-139.324c3.118 3.925 7.058 7.165 11.559 9.462l-40.133 47.995c-2.657 3.178-2.235 7.908.942 10.564 1.404 1.174 3.11 1.747 4.807 1.747 2.145 0 4.274-.915 5.757-2.689l44.476-53.19 111.63 133.498c3.717 4.446 9.166 6.992 14.958 6.992-.011.001 26.714-.086 27.042-.087 4.116-.014 7.751-2.34 9.487-6.072 1.735-3.732 1.173-8.011-1.468-11.167l-127.292-152.124c.525-4.071 1.054-5.365.175-12.337l19.469-23.283h45.999v34.962c0 4.142 3.358 7.5 7.5 7.5h92c4.142 0 7.5-3.358 7.5-7.5v-23.675c0-4.142-3.358-7.5-7.5-7.5s-7.5 3.358-7.5 7.5v16.175h-77v-105h77v53.825c0 4.142 3.358 7.5 7.5 7.5s7.5-3.358 7.5-7.5v-21.825h34.5c7.995 0 14.5-6.505 14.5-14.5v-18c0-7.763-6.138-14.103-13.814-14.465zm-315.186-.035h-128v-10c0-5.514 4.486-10 10-10h108c5.514 0 10 4.486 10 10zm-10-35h-108c-5.514 0-10-4.486-10-10s4.486-10 10-10h108c5.514 0 10 4.486 10 10s-4.486 10-10 10zm0-35h-108c-5.514 0-10-4.486-10-10s4.486-10 10-10h108c5.514 0 10 4.486 10 10s-4.486 10-10 10zm116.552 117-33.062 39.512c-.179.007-.163-.029-.979 0l-33.062-39.512zm-61.441 53.383-44.638-53.382h19.417l36.546 43.676c-4.435 2.393-8.296 5.716-11.325 9.706zm27.889 41.117c-11.028 0-20-8.972-20-20s8.972-20 20-20 20 8.972 20 20-8.972 20-20 20zm143.988 141.052-17.385.056c-.005 0-.01 0-.015 0-1.336 0-2.594-.587-3.452-1.613l-107.286-128.305c4.502-2.297 8.441-5.537 11.559-9.462zm-100.988-200.241-15.111 18.072c-3.028-3.99-6.889-7.313-11.325-9.706l26.436-31.594zm57-4.773h-42v-62.538h42zm92-77.538h-163.974c2.226-5.836 7.865-10 14.474-10h33.564c4.142 0 7.5-3.358 7.5-7.5s-3.358-7.5-7.5-7.5h-25.131c3.35-13.204 15.336-23 29.567-23h51c12.407 0 22.5-10.093 22.5-22.5s-10.093-22.5-22.5-22.5h-44.111l6.64-8.964c1.408-1.901 3.661-3.036 6.027-3.036h35.444c23.986 0 43.5 19.514 43.5 43.5v3 33.5h-67.936c-4.142 0-7.5 3.358-7.5 7.5s3.358 7.5 7.5 7.5h75.436 5.5zm7.5-25h-5.5v-18.343c8.6 1.218 22.418 4.694 29.617 14.619 5.106 7.039 6.183 16.686 3.224 28.725h-19.841v-17.5c0-4.143-3.358-7.501-7.5-7.501zm41.5 57h-34v-17h34z"/><circle cx="256" cy="288.696" r="7.5"/></g></g></svg>