<svg id="Capa_1" enable-background="new 0 0 512 512" height="512" viewBox="0 0 512 512" width="512" xmlns="http://www.w3.org/2000/svg"><g><path d="m256 91c-140.698 0-256 114.3-256 255l255.991 60 256.009-60c0-140.7-115.302-255-256-255z" fill="#ebf2f2"/><path d="m512 346c0-140.7-115.302-255-256-255v314.998z" fill="#cee2e6"/><path d="m76 376v-30c0-99.258 80.742-180 180-180s180 80.742 180 180v30z" fill="#fabe2c"/><path d="m436 376v-30c0-99.258-80.742-180-180-180v210z" fill="#ff9100"/><g fill="#475259"><path d="m308.5 255.077c-7.178-4.116-16.377-1.699-20.479 5.493l-55.254 95.669c-4.16 7.178-1.699 16.348 5.479 20.493 7.209 4.139 16.391 1.66 20.479-5.493l55.254-95.669c4.16-7.177 1.699-16.347-5.479-20.493z"/><path d="m424.999 248.894c-3.109-2.972-50.891-97.894-168.999-97.894-110.879 0-204.596 94.617-194.238 212.578.674 7.808 7.236 13.682 14.912 13.682.439 0 .908-.015 1.348-.059 8.262-.718 14.355-7.998 13.623-16.26-2.604-29.548 2.483-58.279 14.491-84.142l12.462 7.194c7.242 4.157 16.399 1.625 20.479-5.493 4.16-7.178 1.699-16.348-5.479-20.493l-12.283-7.09c3.992-5.616 8.24-11.094 12.986-16.274 8.057-8.793 17.014-16.573 26.62-23.346l7.101 12.301c4.081 7.12 13.237 9.65 20.479 5.493 7.178-4.146 9.639-13.315 5.479-20.493l-7.057-12.226c16.996-7.857 35.262-12.845 54.078-14.581v14.209c0 8.291 6.709 15 15 15s15-6.709 15-15v-14.213c18.801 1.738 37.068 6.747 54.067 14.606l-7.046 12.204c-4.163 7.175-1.693 16.339 5.479 20.493 7.242 4.157 16.399 1.625 20.479-5.493l7.119-12.328c9.309 6.564 17.988 14.105 25.84 22.568 5.032 5.424 9.5 11.191 13.704 17.106l-12.239 7.064c-7.178 4.146-9.639 13.315-5.479 20.493 4.081 7.12 13.237 9.65 20.479 5.493l12.429-7.174c11.689 25.195 16.827 53.132 14.67 81.896-.615 8.262 5.596 15.469 13.857 16.084 8.145.425 15.439-5.581 16.084-13.828 2.984-39.956-6.017-78.507-25.445-112.077z"/></g><path d="m271 196v-14.213c18.801 1.738 37.068 6.747 54.067 14.606l-7.046 12.204c-4.164 7.174-1.692 16.339 5.479 20.493 7.244 4.156 16.399 1.624 20.479-5.493l7.119-12.328c9.309 6.564 17.988 14.105 25.84 22.568 5.032 5.424 9.5 11.191 13.704 17.106l-12.239 7.064c-7.178 4.146-9.639 13.315-5.479 20.493 4.08 7.119 13.235 9.65 20.479 5.493l12.429-7.174c11.689 25.195 16.827 53.132 14.67 81.896-.615 8.262 5.596 15.469 13.857 16.084 8.145.425 15.439-5.581 16.084-13.828 2.985-39.955-6.017-78.506-25.444-112.077-3.109-2.972-50.889-97.894-168.999-97.894v60c8.291 0 15-6.709 15-15z" fill="#333a40"/><path d="m308.5 255.077c-7.178-4.116-16.377-1.699-20.479 5.493l-32.021 55.443v58.332c.985-.952 2.014-1.859 2.725-3.105l55.254-95.669c4.16-7.178 1.699-16.348-5.479-20.494z" fill="#333a40"/><g><path d="m512 346v60c0 8.399-6.599 15-15 15h-482c-8.401 0-15-6.601-15-15v-60z" fill="#475259"/></g><path d="m256 421h241c8.401 0 15-6.601 15-15v-60h-256z" fill="#333a40"/></g></svg>