<?xml version="1.0" encoding="iso-8859-1"?>
<!-- Generator: Adobe Illustrator 19.0.0, SVG Export Plug-In . SVG Version: 6.00 Build 0)  -->
<svg version="1.1" id="Capa_1" xmlns="http://www.w3.org/2000/svg" xmlns:xlink="http://www.w3.org/1999/xlink" x="0px" y="0px"
	 viewBox="0 0 481.264 481.264" style="enable-background:new 0 0 481.264 481.264;" xml:space="preserve">
<path style="fill:#696969;" d="M441.264,24.628h-240c-17.647-0.027-31.973,14.257-32,31.904c0,0.032,0,0.064,0,0.096v80
	c0,17.673,14.327,32,32,32h240c17.647,0.027,31.973-14.257,32-31.904c0-0.032,0-0.064,0-0.096v-80
	C473.264,38.954,458.937,24.628,441.264,24.628z"/>
<path style="fill:#5E5E5F;" d="M441.264,24.628h-80c17.673,0,32,14.327,32,32v80c0.001,2.166-0.216,4.326-0.648,6.448
	c-3.061,14.879-16.161,25.556-31.352,25.552h80c17.647,0.027,31.973-14.257,32-31.904c0-0.032,0-0.064,0-0.096v-80
	C473.264,38.954,458.937,24.628,441.264,24.628z"/>
<g>
	<path style="fill:#535354;" d="M169.264,88.628h304v16h-304V88.628z"/>
	<path style="fill:#535354;" d="M169.264,120.628h304v16h-304V120.628z"/>
	<path style="fill:#535354;" d="M169.264,56.628h304v16h-304V56.628z"/>
</g>
<path style="fill:#696969;" d="M441.264,312.628h-240c-17.647-0.027-31.973,14.257-32,31.904c0,0.032,0,0.064,0,0.096v80
	c0,17.673,14.327,32,32,32h240c17.647,0.027,31.973-14.257,32-31.904c0-0.032,0-0.064,0-0.096v-80
	C473.264,326.954,458.937,312.628,441.264,312.628z"/>
<path style="fill:#5E5E5F;" d="M441.264,312.628h-80c17.673,0,32,14.327,32,32v80c0.001,2.166-0.216,4.326-0.648,6.448
	c-3.061,14.879-16.161,25.556-31.352,25.552h80c17.647,0.027,31.973-14.257,32-31.904c0-0.032,0-0.064,0-0.096v-80
	C473.264,326.954,458.937,312.628,441.264,312.628z"/>
<g>
	<path style="fill:#535354;" d="M169.264,376.628h304v16h-304V376.628z"/>
	<path style="fill:#535354;" d="M169.264,408.628h304v16h-304V408.628z"/>
	<path style="fill:#535354;" d="M169.264,344.628h304v16h-304V344.628z"/>
</g>
<path style="fill:#5E5E5F;" d="M409.264,168.628h-240c-17.647-0.027-31.973,14.257-32,31.904c0,0.032,0,0.064,0,0.096v80
	c0,17.673,14.327,32,32,32h240c17.647,0.027,31.973-14.257,32-31.904c0-0.032,0-0.064,0-0.096v-80
	C441.264,182.954,426.937,168.628,409.264,168.628z"/>
<path style="fill:#585859;" d="M409.264,168.628h-80c17.673,0,32,14.327,32,32v80c0.001,2.166-0.216,4.326-0.648,6.448
	c-3.061,14.879-16.161,25.556-31.352,25.552h80c17.647,0.027,31.973-14.257,32-31.904c0-0.032,0-0.064,0-0.096v-80
	C441.264,182.954,426.937,168.628,409.264,168.628z"/>
<g>
	<path style="fill:#535354;" d="M137.264,232.628h304v16h-304V232.628z"/>
	<path style="fill:#535354;" d="M137.264,264.628h304v16h-304V264.628z"/>
	<path style="fill:#535354;" d="M137.264,200.628h304v16h-304V200.628z"/>
</g>
<circle style="fill:#4398D1;" cx="169.264" cy="296.628" r="120"/>
<path style="fill:#737373;" d="M169.264,136.628c-88.366,0-160,71.634-160,160s71.634,160,160,160s160-71.634,160-160
	S257.629,136.628,169.264,136.628z M169.264,416.628c-66.274,0-120-53.726-120-120s53.726-120,120-120s120,53.726,120,120
	S235.538,416.628,169.264,416.628z"/>
<path style="fill:#87CED9;" d="M217.264,296.628l65.752-37.96c-1.304-3.84-2.752-7.616-4.4-11.288l-0.144-0.28
	c-1.008-2.216-2.192-4.328-3.336-6.472c-0.704-1.328-1.312-2.712-2.064-4l-0.112-0.184c-2-3.435-4.157-6.755-6.472-9.96
	c-2.341-3.243-4.84-6.36-7.496-9.352l-65.728,37.896v-76h-0.288c-3.784-0.76-7.624-1.36-11.536-1.752
	c-8.097-0.821-16.255-0.821-24.352,0c-3.808,0.384-7.544,0.976-11.2,1.704c-0.208,0.224-0.392,0.48-0.592,0.72v75.328L79.608,217.1
	l-0.216,0.232c-2.576,2.92-5.024,5.952-7.312,9.112c-2.315,3.2-4.472,6.52-6.472,9.96l-0.112,0.184
	c-1.974,3.401-3.776,6.899-5.4,10.48l-0.144,0.28c-1.648,3.669-3.117,7.429-4.408,11.28l65.72,38l-65.768,37.968
	c1.285,3.851,2.757,7.608,4.416,11.272l0.144,0.28c1.632,3.589,3.432,7.083,5.4,10.48l0.112,0.184c2,3.435,4.157,6.755,6.472,9.96
	c2.342,3.242,4.847,6.363,7.504,9.352l65.72-37.896v76l0.288,0.04c3.784,0.76,7.624,1.36,11.536,1.752
	c8.097,0.821,16.255,0.821,24.352,0c3.912-0.392,7.752-0.992,11.536-1.752l0.288-0.04v-76l65.712,37.936
	c2.657-2.989,5.162-6.11,7.504-9.352c2.315-3.2,4.472-6.52,6.472-9.96l0.112-0.184c0.752-1.296,1.36-2.68,2.064-4
	c1.144-2.144,2.328-4.248,3.336-6.472l0.144-0.28c1.648-3.664,3.12-7.421,4.416-11.272L217.264,296.628z M153.264,296.628
	c0-8.837,7.163-16,16-16s16,7.163,16,16s-7.163,16-16,16S153.264,305.464,153.264,296.628z"/>
<path style="fill:#71C4D1;" d="M283.016,258.668c-1.304-3.84-2.752-7.616-4.4-11.288l-0.144-0.28
	c-1.008-2.216-2.192-4.328-3.336-6.472c-0.704-1.328-1.312-2.712-2.064-4l-0.112-0.184c-0.216-0.368-0.48-0.704-0.696-1.072
	l-75.896,44.456c9.355,14.921,4.843,34.601-10.078,43.956s-34.601,4.843-43.956-10.078c-0.344-0.549-0.672-1.109-0.982-1.678
	l-76,44.48l0.088,0.168l0.112,0.184c2,3.435,4.157,6.755,6.472,9.96c2.342,3.242,4.847,6.363,7.504,9.352l65.736-37.944v76
	l0.288,0.04c3.784,0.76,7.624,1.36,11.536,1.752c8.097,0.821,16.255,0.821,24.352,0c3.912-0.392,7.752-0.992,11.536-1.752
	l0.288-0.04v-76l65.712,37.936c2.657-2.989,5.162-6.11,7.504-9.352c2.315-3.2,4.472-6.52,6.472-9.96l0.112-0.184
	c0.752-1.296,1.36-2.68,2.064-4c1.144-2.144,2.328-4.248,3.336-6.472l0.144-0.28c1.648-3.664,3.12-7.421,4.416-11.272l-65.76-38.016
	L283.016,258.668z"/>
<path d="M441.264,16.628h-240c-22.08,0.026-39.974,17.92-40,40v72.408c-92.637,3.647-164.778,81.7-161.131,174.337
	s81.7,164.778,174.337,161.131c5.542-0.218,11.069-0.711,16.563-1.476c3.323,0.99,6.765,1.528,10.232,1.6h240
	c22.08-0.026,39.974-17.92,40-40v-80c-0.026-22.08-17.92-39.974-40-40h-0.208c5.294-6.883,8.179-15.316,8.208-24v-80
	c-0.029-8.684-2.914-17.117-8.208-24h0.208c22.08-0.026,39.974-17.92,40-40v-80C481.237,34.547,463.344,16.654,441.264,16.628z
	 M231.504,435.156c-2.475,1.104-4.979,2.141-7.512,3.112c-1.152,0.448-2.328,0.864-3.504,1.288
	c-78.977,28.34-165.974-12.71-194.314-91.686s12.71-165.974,91.686-194.314c16.492-5.918,33.882-8.938,51.404-8.928
	c4.8,0,9.472,0.28,14.128,0.712c1.488,0.144,2.952,0.36,4.432,0.536c3.2,0.392,6.336,0.864,9.456,1.448
	c1.68,0.32,3.36,0.656,5.024,1.024c2.872,0.648,5.704,1.4,8.52,2.2c1.696,0.488,3.416,0.928,5.096,1.48
	c2.728,0.88,5.384,1.912,8,2.944c4.112,1.6,8.16,3.376,12.136,5.344c1.176,0.584,2.4,1.104,3.544,1.712
	c2.84,1.496,5.6,3.152,8.368,4.8c0.912,0.56,1.832,1.096,2.736,1.664c2.776,1.784,5.504,3.68,8.192,5.648
	c0.8,0.576,1.552,1.152,2.32,1.736c2.768,2.133,5.453,4.328,8.056,6.584c1,0.872,1.976,1.776,2.944,2.672
	c2.224,2.04,4.4,4.128,6.488,6.288c1.416,1.472,2.768,3.008,4.128,4.544c1.6,1.776,3.2,3.544,4.68,5.392
	c1.752,2.176,3.384,4.44,5.024,6.712c1.04,1.44,2.136,2.84,3.128,4.312c0.632,0.944,1.16,1.96,1.768,2.92
	c2.4,3.744,4.664,7.584,6.736,11.624c0.336,0.656,0.624,1.336,0.96,1.992c2.232,4.544,4.312,9.216,6.144,14.064
	c0.128,0.336,0.248,0.68,0.376,1.024c1.704,4.624,3.2,9.344,4.456,14.136l0.112,0.432c1.291,5.011,2.327,10.084,3.104,15.2v0.152
	c0.544,3.616,0.936,6.96,1.24,10.184c0.336,4.12,0.632,8.248,0.632,12.448c-0.012,5.098-0.279,10.193-0.8,15.264
	c0,0.448-0.128,0.896-0.176,1.344c-0.424,3.856-1.04,7.64-1.744,11.4c-0.312,1.6-0.616,3.2-0.976,4.8
	c-0.608,2.744-1.344,5.44-2.096,8.128c-0.896,3.168-1.899,6.317-3.008,9.448c-0.456,1.288-0.92,2.56-1.408,3.832
	c-1.72,4.496-3.672,8.904-5.816,13.216c-0.32,0.656-0.616,1.328-0.944,1.976c-2.475,4.824-5.204,9.513-8.176,14.048l-0.056,0.096
	c-1.08,1.6-2.248,3.2-3.376,4.8c-1.376,1.904-2.768,3.8-4.224,5.6c-1.168,1.488-2.352,2.96-3.576,4.4
	c-2.192,2.568-4.448,5.064-6.8,7.48c-1.16,1.192-2.4,2.352-3.568,3.512c-2.176,2.096-4.411,4.128-6.704,6.096
	c-1.448,1.24-2.928,2.4-4.416,3.616c-1.992,1.6-4,3.08-6.096,4.56c-1.528,1.088-3.048,2.208-4.616,3.248
	c-2.664,1.752-5.416,3.384-8.192,4.976c-2.624,1.504-5.304,2.896-8,4.232C234.864,433.564,233.192,434.396,231.504,435.156
	L231.504,435.156z M336.584,283.156c-0.072-0.848-0.048-1.72-0.128-2.56h96.808c0,13.255-10.745,24-24,24h-72.192
	c0.128-2.688,0.192-5.36,0.192-8c0-4.296-0.256-8.768-0.68-13.408L336.584,283.156z M334.12,264.628
	c-1.067-5.435-2.376-10.768-3.928-16h103.072v16H334.12z M324.52,232.628c-2.237-5.464-4.763-10.805-7.568-16h116.312v16H324.52z
	 M307.056,200.628c-1.264-1.8-2.704-3.464-4-5.216c-1.672-2.2-3.296-4.448-5.072-6.568c-1.2-1.432-2.52-2.76-3.768-4.144
	c-2.4-2.696-4.8-5.384-7.408-7.92l-0.168-0.152h122.624c13.255,0,24,10.745,24,24L307.056,200.628z M441.264,448.628H240.608
	c1.536-0.72,3.024-1.552,4.544-2.32c1.76-0.896,3.552-1.728,5.272-2.688c3.736-2.056,7.368-4.304,10.944-6.656
	c1.464-0.96,2.88-1.968,4.304-2.968c2.667-1.877,5.285-3.837,7.856-5.88c1.184-0.944,2.4-1.848,3.544-2.816
	c0.28-0.232,0.576-0.44,0.848-0.672h187.344C465.264,437.882,454.519,448.628,441.264,448.628L441.264,448.628z M465.264,408.628
	H294.336c0.888-0.992,1.712-2.048,2.576-3.064c1.04-1.216,2.088-2.4,3.096-3.672c2.4-3.016,4.8-6.088,6.984-9.264h158.272
	L465.264,408.628z M465.264,376.628H316.96c2.805-5.195,5.331-10.536,7.568-16h140.736L465.264,376.628z M441.264,320.628
	c13.255,0,24,10.745,24,24H330.192c0.232-0.8,0.392-1.6,0.616-2.4c0.96-3.376,1.864-6.752,2.616-10.152
	c0.384-1.792,0.672-3.616,1-5.432c0.368-2.008,0.8-4,1.112-6.024h105.728L441.264,320.628z M441.264,160.628H267.608
	c-0.352-0.256-0.728-0.472-1.08-0.728c-2.437-1.733-4.923-3.403-7.456-5.008c-1.544-0.984-3.12-1.92-4.696-2.856
	c-2.352-1.392-4.688-2.8-7.12-4.072c-3.792-2.011-7.643-3.877-11.552-5.6c-1.6-0.68-3.2-1.256-4.8-1.888
	c-3.072-1.224-6.168-2.4-9.304-3.416c-0.424-0.136-0.8-0.32-1.256-0.456h244.92c0.013,13.255-10.721,24.011-23.976,24.024
	C441.28,160.628,441.272,160.628,441.264,160.628z M465.264,120.628h-288v-16h288V120.628z M465.264,88.628h-288v-16h288V88.628z
	 M177.264,56.628c0-13.255,10.745-24,24-24h240c13.255,0,24,10.745,24,24H177.264z"/>
<path d="M264.616,381.716c0.104-0.104,0.24-0.152,0.344-0.264c0.256-0.288,0.464-0.608,0.712-0.896
	c2.152-2.464,4.176-5.016,6.128-7.64c0.368-0.496,0.8-0.952,1.168-1.456c0.184-0.248,0.336-0.536,0.512-0.8
	c1.968-2.752,3.784-5.6,5.528-8.504c0.312-0.512,0.672-0.976,0.976-1.496c0.136-0.24,0.248-0.496,0.384-0.736
	c1.296-2.264,2.48-4.592,3.64-6.936c0.632-1.2,1.256-2.4,1.904-3.84c0.088-0.192,0.136-0.376,0.224-0.56
	c1.48-3.328,2.792-6.736,4-10.2c0.144-0.424,0.36-0.856,0.496-1.272v-0.144c8.834-26.212,8.817-54.599-0.048-80.8V256.1
	c-0.8-2.352-1.6-4.576-2.488-6.752c-0.648-1.6-1.328-3.2-2.04-4.8c-0.112-0.248-0.2-0.488-0.304-0.728
	c-0.272-0.6-0.6-1.16-0.888-1.736c-1.424-3.024-2.936-5.992-4.584-8.872c-0.152-0.264-0.248-0.496-0.416-0.8
	c-0.28-0.48-0.648-0.952-0.936-1.44c-1.712-2.848-3.496-5.6-5.416-8.336c-0.2-0.28-0.36-0.584-0.56-0.864
	c-0.392-0.536-0.848-1.016-1.248-1.544c-1.928-2.592-3.936-5.112-6.056-7.544c-0.24-0.28-0.456-0.6-0.696-0.872
	c-0.096-0.112-0.232-0.16-0.336-0.264c-18.363-20.68-42.935-34.85-70.032-40.384c-2.4-0.48-4.616-0.712-6.896-1.04
	c-1.8-0.264-3.568-0.64-5.392-0.8c-0.928-0.096-1.864-0.064-2.792-0.136c-3.416-0.312-6.8-0.56-10.24-0.56s-6.824,0.248-10.192,0.52
	c-0.928,0.072-1.864,0-2.792,0.136c-1.72,0.176-3.376,0.528-5.072,0.8c-2.272,0.328-4.464,0.568-6.888,1.048h-0.048
	c-27.363,5.51-52.172,19.822-70.64,40.752c-0.08,0.08-0.184,0.12-0.256,0.2c-0.184,0.208-0.336,0.432-0.512,0.64
	c-2.144,2.456-4.168,5.008-6.12,7.624c-0.368,0.496-0.8,0.968-1.168,1.464c-0.184,0.248-0.336,0.536-0.512,0.8
	c-1.976,2.768-3.808,5.6-5.6,8.552c-0.304,0.504-0.656,0.952-0.952,1.464c-0.184,0.32-0.352,0.664-0.536,0.984
	c-0.8,1.344-1.504,2.688-2.224,4.064c-1.08,2.072-2.136,4.208-3.16,6.448c-0.08,0.184-0.136,0.376-0.216,0.56
	c-1.536,3.44-2.896,6.96-4.128,10.552c-0.104,0.304-0.248,0.592-0.352,0.904v0.104c-8.837,26.195-8.837,54.565,0,80.76v0.144
	c0.752,2.264,1.6,4.576,2.576,6.928c0.632,1.6,1.288,3.136,1.984,4.68c0.112,0.248,0.192,0.48,0.304,0.728
	c0.192,0.408,0.448,0.8,0.64,1.232c1.52,3.2,3.136,6.4,4.904,9.496c0.128,0.216,0.216,0.432,0.344,0.656
	c0.28,0.48,0.64,0.944,0.92,1.424c1.728,2.872,3.528,5.68,5.464,8.4c0.192,0.264,0.336,0.544,0.528,0.8
	c0.368,0.504,0.8,0.968,1.176,1.464c1.952,2.616,4,5.16,6.104,7.616c0.256,0.288,0.464,0.608,0.72,0.896
	c0.104,0.112,0.24,0.16,0.344,0.272c18.364,20.672,42.933,34.835,70.024,40.368c2.4,0.48,4.616,0.712,6.896,1.04
	c1.8,0.264,3.568,0.64,5.392,0.8c4.304,0.432,8.672,0.656,12.984,0.656s8.68-0.224,12.976-0.656l0.288-0.04
	c3.92-0.4,7.848-0.992,12.352-1.88C221.821,416.47,246.306,402.33,264.616,381.716L264.616,381.716z M278.12,270.732
	c4.192,17.01,4.192,34.782,0,51.792l-44.856-25.896L278.12,270.732z M201.264,189.348c16.76,5.038,32.105,13.937,44.8,25.984
	l-44.8,25.872V189.348z M137.264,189.348v51.856l-44.8-25.872C105.159,203.285,120.503,194.385,137.264,189.348z M60.408,322.532
	c-4.192-17.012-4.192-34.788,0-51.8l44.856,25.896L60.408,322.532z M137.264,403.908c-16.76-5.038-32.105-13.937-44.8-25.984
	l44.8-25.872V403.908z M201.264,403.908v-51.856l44.8,25.872C233.369,389.97,218.024,398.87,201.264,403.908L201.264,403.908z
	 M197.264,331.268c-3.826-2.209-8.719-0.898-10.928,2.928c-0.708,1.226-1.077,2.617-1.072,4.032v69.12
	c-1.456,0.216-2.88,0.52-4.36,0.672h-0.264c-7.568,0.76-15.192,0.76-22.76,0h-0.232c-1.48-0.152-2.92-0.456-4.384-0.672v-69.12
	c0-4.418-3.582-8-8-8c-1.404,0-2.784,0.37-4,1.072l-59.88,34.576c-1.088-1.376-2.136-2.792-3.2-4.224
	c-1.864-2.6-3.6-5.296-5.272-8.112c-0.256-0.432-0.528-0.8-0.8-1.272c-1.6-2.752-3.032-5.6-4.448-8.64
	c-0.248-0.528-0.528-1.04-0.8-1.6c-0.533-1.216-1.051-2.429-1.552-3.64l-0.08-0.224l60.032-34.608
	c3.826-2.209,5.137-7.102,2.928-10.928c-0.702-1.216-1.712-2.226-2.928-2.928l-59.928-34.6v-0.056
	c0.536-1.344,1.12-2.696,1.728-4.064c0.232-0.504,0.488-1,0.728-1.504c1.328-2.84,2.776-5.68,4.424-8.56
	c0.288-0.496,0.6-0.968,0.888-1.456c1.6-2.616,3.2-5.208,5.04-7.744c1.04-1.456,2.104-2.896,3.2-4.296l59.92,34.568
	c3.826,2.209,8.719,0.898,10.928-2.928c0.708-1.226,1.077-2.617,1.072-4.032v-69.12c1.448-0.208,2.872-0.512,4.344-0.664l0.28-0.04
	c7.568-0.76,15.192-0.76,22.76,0h0.232c1.48,0.152,2.92,0.456,4.384,0.672v69.152c0,4.418,3.582,8,8,8c1.404,0,2.784-0.37,4-1.072
	l59.888-34.568c1.067,1.376,2.117,2.781,3.152,4.216c1.856,2.584,3.592,5.288,5.264,8.104c0.264,0.448,0.552,0.88,0.8,1.328
	s0.544,1.016,0.8,1.536l1.6,3.144c0.376,0.696,0.752,1.4,1.136,2.136c0.536,1.104,1.104,2.2,1.6,3.328
	c0.552,1.256,1.096,2.52,1.6,3.856l-59.84,34.664c-3.826,2.209-5.137,7.102-2.928,10.928c0.702,1.216,1.712,2.226,2.928,2.928
	l37.24,21.504l22.688,13.096l-0.072,0.208c-0.536,1.312-1.12,2.648-1.728,4c-0.208,0.464-0.448,0.904-0.664,1.36
	c-0.608,1.269-1.245,2.52-1.912,3.752l-1.648,3.2c-0.24,0.512-0.544,1.072-0.864,1.656s-0.608,0.992-0.912,1.496
	c-1.544,2.6-3.2,5.184-5.008,7.712c-1.048,1.464-2.12,2.912-3.24,4.328L197.264,331.268z"/>
<path d="M169.264,272.628c-13.255,0-24,10.745-24,24s10.745,24,24,24s24-10.745,24-24S182.519,272.628,169.264,272.628z
	 M169.264,304.628c-4.418,0-8-3.582-8-8s3.582-8,8-8s8,3.582,8,8S173.682,304.628,169.264,304.628z"/>
<g>
</g>
<g>
</g>
<g>
</g>
<g>
</g>
<g>
</g>
<g>
</g>
<g>
</g>
<g>
</g>
<g>
</g>
<g>
</g>
<g>
</g>
<g>
</g>
<g>
</g>
<g>
</g>
<g>
</g>
</svg>
